<svg xmlns="http://www.w3.org/2000/svg" version="1.1" xmlns:xlink="http://www.w3.org/1999/xlink" xmlns:svgjs="http://svgjs.com/svgjs" width="512" height="512" x="0" y="0" viewBox="0 0 512 512" style="enable-background:new 0 0 512 512" xml:space="preserve" class=""><g><linearGradient id="a" x1="426.319" x2="114.341" y1="457.203" y2="11.652" gradientUnits="userSpaceOnUse"><stop stop-opacity="1" stop-color="#f5f5f4" offset="0.101"></stop><stop stop-opacity="1" stop-color="#e7e5e4" offset="1"></stop></linearGradient><path fill="url(#a)" fill-rule="evenodd" d="M79.072 293.52c0-2.303-.405-4.512-1.148-6.559l20.173-19.763h49.059v16.11c0 .196.003.392.008.587l-38.315 12.348a7.947 7.947 0 0 0-4.519 3.694l-26.424 47.036a19.348 19.348 0 0 0-1.604-.067c-10.627 0-19.242 8.615-19.242 19.241 0 10.627 8.615 19.242 19.242 19.242s19.242-8.615 19.242-19.242c0-4.246-1.376-8.17-3.706-11.352l24.891-44.333 36.422-11.737c4.201 4.608 10.244 7.511 16.933 7.511h51.128v-67.649c0-9.786 4.163-18.627 10.808-24.848a27.697 27.697 0 0 1-4.554-15.261c0-15.374 12.463-27.837 27.837-27.837s27.837 12.463 27.837 27.837a27.7 27.7 0 0 1-4.584 15.306c6.617 6.218 10.76 15.04 10.76 24.802l-.001 61.788a34.04 34.04 0 0 1 2.052-.061 33.84 33.84 0 0 1 19.155 5.922h30c6.856 0 13.034-3.051 17.245-7.861l37.508 12.088 24.891 44.333a19.154 19.154 0 0 0-3.706 11.352c0 10.627 8.615 19.242 19.242 19.242 10.626 0 19.241-8.615 19.241-19.242 0-10.626-8.615-19.241-19.241-19.241-.54 0-1.075.024-1.604.067l-26.424-47.036a7.947 7.947 0 0 0-4.519-3.694l-39.707-12.796.002-.138v-16.11h50.456l20.173 19.763a19.211 19.211 0 0 0-1.148 6.559c0 10.627 8.615 19.242 19.241 19.242s19.242-8.615 19.242-19.242-8.615-19.242-19.242-19.242c-2.443 0-4.778.456-6.928 1.286l-22.096-21.648a7.982 7.982 0 0 0-6.009-2.72H363.45v-29.234h71.219c3.036 6.633 9.732 11.242 17.504 11.242 10.627 0 19.242-8.615 19.242-19.241 0-10.627-8.615-19.242-19.242-19.242-7.772 0-14.467 4.608-17.504 11.242H363.45v-29.235h53.689a7.978 7.978 0 0 0 6.009-2.72l22.096-21.648c2.15.83 4.486 1.286 6.928 1.286 10.627 0 19.242-8.615 19.242-19.241 0-10.627-8.615-19.242-19.242-19.242s-19.241 8.615-19.241 19.242c0 2.303.406 4.512 1.148 6.559l-20.173 19.763H363.45v-14.334l40.017-14.805a7.962 7.962 0 0 0 4.219-3.594l26.412-47.042c.529.044 1.064.067 1.604.067 10.626 0 19.241-8.615 19.241-19.242s-8.615-19.242-19.241-19.242c-10.627 0-19.242 8.615-19.242 19.242 0 4.246 1.376 8.17 3.706 11.353l-24.977 44.486-36.236 13.406c-4.186-5.651-10.899-9.332-18.43-9.332h-11.381V82.836C329.138 42.192 295.946 9 255.301 9s-73.837 33.191-73.837 73.836v38.856h-11.381c-7.35 0-13.921 3.507-18.124 8.928l-35.145-13.002-24.977-44.486a19.157 19.157 0 0 0 3.706-11.353c0-10.627-8.615-19.242-19.242-19.242s-19.242 8.615-19.242 19.242 8.615 19.242 19.242 19.242c.54 0 1.075-.024 1.604-.067l26.413 47.041a7.952 7.952 0 0 0 4.218 3.594l38.62 14.288v14.851H98.097l-20.173-19.763a19.211 19.211 0 0 0 1.148-6.559c0-10.627-8.615-19.242-19.242-19.242-10.626 0-19.241 8.615-19.241 19.242 0 10.626 8.615 19.241 19.241 19.241 2.443 0 4.779-.456 6.928-1.286l22.096 21.648a7.982 7.982 0 0 0 6.009 2.72h52.292v29.235H77.334c-3.036-6.633-9.732-11.242-17.504-11.242-10.626 0-19.241 8.615-19.241 19.242s8.615 19.241 19.241 19.241c7.772 0 14.468-4.608 17.504-11.242h69.821v29.234H94.864a7.982 7.982 0 0 0-6.009 2.72l-22.096 21.648a19.197 19.197 0 0 0-6.928-1.286c-10.626 0-19.241 8.615-19.241 19.242s8.615 19.242 19.241 19.242c10.626-.002 19.241-8.616 19.241-19.243zm286.71 178.941H233.1c-6.785-33.833-31.055-54.383-59.46-117.894-11.137-24.902 14.503-39.442 31.266-18.052l32.304 41.221V238.585c0-9.929 8.123-18.052 18.052-18.052 9.928 0 18.052 8.124 18.052 18.052l-.001 95.779c0-9.928 8.123-18.052 18.052-18.052 9.928 0 18.052 8.124 18.052 18.052v16.56c0-9.928 8.123-18.051 18.052-18.051s18.052 8.123 18.052 18.051v16.052c0-9.928 8.123-18.052 18.052-18.052s18.052 8.123 18.052 18.052l-.002 24.508c-.003 19.188-2.215 55.266-15.841 80.977zm-131.436 16V503h126.568v-14.539zm-17.787-366.769V82.836c0-21.274 17.469-38.742 38.743-38.742 21.273 0 38.742 17.468 38.742 38.742v38.856z" clip-rule="evenodd" data-original="url(#a)"></path></g></svg>