<svg xmlns="http://www.w3.org/2000/svg" version="1.1" xmlns:xlink="http://www.w3.org/1999/xlink" xmlns:svgjs="http://svgjs.com/svgjs" width="512" height="512" x="0" y="0" viewBox="0 0 512 512" style="enable-background:new 0 0 512 512" xml:space="preserve" class=""><g><linearGradient id="a" x1="44.203" x2="483.891" y1="519.319" y2="79.631" gradientUnits="userSpaceOnUse"><stop stop-opacity="1" stop-color="#294074" offset="0"></stop><stop stop-opacity="1" stop-color="#939393" offset="0"></stop><stop stop-opacity="1" stop-color="#696969" offset="1"></stop></linearGradient><path fill="url(#a)" fill-rule="evenodd" d="M22.949 468.202a5.01 5.01 0 0 0-5 5V491c0 2.754 2.246 5 5 5h147.2c2.754 0 5-2.246 5-5v-17.798c0-2.754-2.246-5-5-5zm42.487-162.748a5.999 5.999 0 1 1-8.484-8.484 56.179 56.179 0 0 1 27.06-14.981v12.373c-7.047 2.08-13.386 5.902-18.576 11.092zm-27.372-27.372a5.999 5.999 0 1 1-8.484-8.484c14.605-14.605 33.736-24.16 54.432-26.912v12.11c-17.53 2.649-33.494 10.832-45.948 23.286zm.985-88.487c-4.258 3.239-5.093 9.351-1.86 13.613l9.132 12.038a9.68 9.68 0 0 0 13.63 1.862L264.635 61.417l204.684 155.691a9.68 9.68 0 0 0 13.63-1.862l9.132-12.038c3.233-4.262 2.399-10.374-1.86-13.613L275.381 26.179c-6.032-4.798-14.765-5.104-21.188-.232zM351.671 16h66.581a4.87 4.87 0 0 1 4.86 4.861v13.393a4.87 4.87 0 0 1-4.86 4.861h-66.581a4.87 4.87 0 0 1-4.86-4.861V20.861a4.87 4.87 0 0 1 4.86-4.861zM96.549 336.542c-32.258 0-58.65 26.392-58.65 58.649v61.01h117.299v-61.01c.001-32.256-26.391-58.649-58.649-58.649zm36.65 87.248a6 6 0 1 1-12 0v-8.597a6 6 0 1 1 12 0zm-6-22.598a6 6 0 0 1-6-6c0-13.491-11.158-24.649-24.649-24.649a6 6 0 0 1 0-12c20.114 0 36.65 16.536 36.65 36.65a6 6 0 0 1-6.001 5.999zM356.108 72.506l57.707 43.894V51.114h-57.707zm-17.383 211.929-21.636 8.757c-4.773 2.039-9.4-2.185-8.294-6.853 15.913-67.145-21.635-103.423-38.647-115.991-2.194 16.858-8.969 51.135-29.076 73.755a5.979 5.979 0 0 1-8.298.916l-18.38-14.337c-8.776 31.08-30.549 60.263-30.591 90.29-.061 44.332 36.179 80.274 80.835 80.395 44.617-.001 80.806-36.219 80.806-80.829.041-15.489-4.074-29.037-6.719-36.103zm-74.088 108.174c-26.58-.094-48.319-21.383-48.319-48.08.068-19.005 12.991-33.757 16.16-50.226.835-4.339 6.033-6.543 9.86-3.354l7.459 5.818c8.235-12.919 9.118-31 9.121-31.058.236-4.36 4.916-7.029 8.858-4.919.102.053 32.701 17.42 28.892 57.964l3.414-1.382a5.994 5.994 0 0 1 7.805 3.305c3.179 7.029 5.07 15.978 5.065 23.638-.015 26.672-21.59 48.293-48.315 48.294zm36.339-48.294c.014-5.299-1.046-10.1-2.086-13.53l-7.424 3.005c-4.773 2.039-9.4-2.185-8.294-6.853 6.255-26.392-5.314-42.368-13.668-50.06-1.728 9.218-5.568 22.596-13.988 32.125a5.978 5.978 0 0 1-8.297.915l-5.484-4.278c-4.19 11.945-13.402 26.275-13.439 38.889 0 20.006 16.39 36.127 36.343 36.127 20.04.001 36.337-16.297 36.337-36.34zM264.635 76.494 96.012 204.756v37.104c25.623-.081 49.692 9.925 67.506 27.739a5.999 5.999 0 1 1-8.484 8.484c-15.69-15.69-36.476-24.294-59.022-24.223v26.711a56.063 56.063 0 0 1 40.134 16.4 5.999 5.999 0 1 1-8.484 8.484c-8.403-8.403-19.578-13.018-31.65-12.883v31.979c39.096-.309 71.187 31.563 71.187 70.643v61.01h2.951c7.637 0 14.111 5.057 16.25 12h241.859c2.754 0 5-2.246 5-5V204.755zm-.465 336.823c-50.933-.204-92.524-41.583-92.319-92.808.146-36.229 26.426-67.21 33.002-101.387.881-4.608 6.44-6.398 9.86-3.354l20.834 16.251c21.488-28.176 23.636-72.234 23.643-72.368.232-4.547 5.32-7.131 9.113-4.793 4.675 2.606 68.177 39.643 54.387 123.136l17.026-6.891c3.224-1.305 6.554.354 7.865 3.46 1.486 3.264 9.923 22.768 9.862 45.97.001 51.5-41.807 92.99-93.273 92.784z" clip-rule="evenodd" data-original="url(#a)" class=""></path></g></svg>