<svg id="Layer_1" enable-background="new 0 0 512 512" height="512" viewBox="0 0 512 512" width="512" xmlns="http://www.w3.org/2000/svg">
<path clip-rule="evenodd" d="m437.93 487.37v-13.53c0-10.1-4.49-18.95-12.65-24.91-4.06-2.96-6.48-7.72-6.48-12.73 0-.7.05-1.4.14-2.08 1.26-9.62-1.79-18.73-8.59-25.64-7.31-7.43-14.93-14.91-22.3-22.14-5.3-5.2-10.79-10.58-16.03-15.82-3.53-3.53-5.48-8.26-5.48-13.3s1.95-9.77 5.48-13.3c7.34-7.33 19.27-7.33 26.61 0l36.44 36.44c2.91 2.91 7.25 3.78 11.05 2.2 3.8-1.57 6.26-5.25 6.26-9.37v-105.07l32.17 58.13c3.78 6.83 5.46 13.35 5.46 21.15v139.97zm2.45-118.67-33.27-33.27c-12.01-12.01-31.56-12.01-43.57 0-5.8 5.8-9 13.54-9 21.79s3.2 15.99 9 21.79c5.28 5.28 10.78 10.68 16.11 15.9 2.03 1.99 4.07 4 6.13 6.02h-76.8c-6.65 0-12.06-5.41-12.06-12.06v-214.21c0-6.65 5.41-12.06 12.06-12.06h119.34c6.65 0 12.06 5.41 12.06 12.06zm-57.19-78.4c0-8.01-6.52-14.53-14.54-14.53-8.01 0-14.53 6.52-14.53 14.53 0 8.02 6.52 14.54 14.53 14.54 8.02 0 14.54-6.52 14.54-14.54zm9.12-24.95c-6.33-6.36-14.76-9.87-23.74-9.87-8.92 0-17.31 3.47-23.64 9.76-2.34 2.34-2.35 6.14-.01 8.48 2.34 2.35 6.13 2.36 8.48.02 4.06-4.04 9.45-6.27 15.17-6.27 5.76 0 11.17 2.25 15.23 6.33 1.18 1.18 2.72 1.77 4.26 1.77 1.53 0 3.06-.58 4.23-1.75 2.35-2.33 2.36-6.13.02-8.47zm17.65-17.66c-11.05-11.08-25.75-17.17-41.39-17.17-15.59 0-30.26 6.07-41.29 17.08-2.35 2.34-2.35 6.14-.01 8.48 2.34 2.35 6.14 2.35 8.48.01 8.77-8.75 20.43-13.58 32.82-13.58 12.43 0 24.11 4.85 32.89 13.65 1.17 1.17 2.71 1.76 4.25 1.76 1.53 0 3.07-.58 4.24-1.75 2.34-2.34 2.35-6.14.01-8.48zm9.16-9.18c1.17 1.17 2.71 1.76 4.24 1.76 1.54 0 3.07-.59 4.24-1.75 2.35-2.34 2.35-6.14.01-8.48-15.76-15.79-36.73-24.49-59.04-24.49-22.26 0-43.19 8.66-58.95 24.4-2.34 2.34-2.35 6.14-.01 8.49 2.35 2.34 6.15 2.34 8.49 0 13.49-13.47 31.41-20.89 50.47-20.89 19.1 0 37.05 7.44 50.55 20.96zm-50.47 54.32c1.4 0 2.54-1.13 2.54-2.54 0-1.39-1.14-2.54-2.54-2.54s-2.53 1.14-2.53 2.54c0 1.41 1.13 2.54 2.53 2.54zm-123.12-200.51 74.95 58.28h75.15l-157.46-122.45c-6.03-4.69-14.14-4.69-20.17 0l-187.11 145.52c-10.05 7.81-11.86 22.33-4.05 32.37 7.8 10.04 22.33 11.85 32.37 4.05l151.43-117.77c10.43-8.11 24.46-8.11 34.89 0zm56.66 59.26-64.02-49.79c-6.03-4.69-14.14-4.69-20.17 0l-141.15 109.78v184.03h209.04c-.63-2.14-.97-4.39-.97-6.73v-48.38c-12.41 11.01-27.8 19.88-45.97 26.47l-8.82 3.19c-.66.24-1.35.36-2.04.36-.7 0-1.39-.12-2.05-.36l-8.82-3.19c-64.06-23.21-91.98-73.17-82.98-148.48l1.77-14.79c.27-2.24 1.77-4.14 3.89-4.92l14.35-5.28c21.05-7.74 39.74-17.31 55.55-28.45l14.83-10.46c2.07-1.46 4.84-1.46 6.91 0l14.83 10.46c11.42 8.05 24.37 15.28 38.55 21.57v-11.95c0-10.91 7.3-20.14 17.27-23.08zm-40.35 104.41v43.54h-67.51v-43.54zm-45.63 16.34c0 4.36 2.37 8.16 5.88 10.23v5.65c0 3.31 2.68 6 6 6 3.31 0 6-2.69 6-6v-5.65c3.5-2.07 5.87-5.87 5.87-10.23 0-6.54-5.33-11.88-11.87-11.88-6.55 0-11.88 5.33-11.88 11.88zm-5.14-28.34h34.03v-10.55c0-9.38-7.63-17.02-17.01-17.02-9.39 0-17.02 7.63-17.02 17.02zm17.02-39.57c-16 0-29.02 13.02-29.02 29.02v10.55h-6.32c-5.75 0-10.42 4.68-10.42 10.43v46.69c0 5.75 4.67 10.43 10.42 10.43h70.67c5.75 0 10.42-4.68 10.42-10.43v-46.69c0-5.75-4.67-10.43-10.42-10.43h-6.32v-10.55c0-16-13.01-29.02-29.01-29.02zm56.83 119.18c-12.3 13.7-29.12 24.48-50.05 32.07l-6.78 2.45-6.79-2.45c-58.93-21.35-83.51-65.77-75.14-135.77l1.33-11.14 10.9-4c22.04-8.1 41.66-18.16 58.32-29.91l11.38-8.02 11.37 8.02c13.36 9.42 28.65 17.75 45.46 24.83zm8.99 84h-227.86c-8.67 0-15.72 7.05-15.72 15.72s7.05 15.73 15.72 15.73h324.07c8.67 0 15.72-7.06 15.72-15.73 0-.17-.01-.34-.02-.51-.9-2.13-2.24-4.11-4.03-5.92-1.29-1.32-2.61-2.64-3.93-3.96h-88.88c-5.7 0-10.95-2-15.07-5.33z" fill-rule="evenodd"/></svg>