<?xml version="1.0" encoding="UTF-8" standalone="no"?>
<!-- Created with Inkscape (http://www.inkscape.org/) -->

<svg
   version="1.1"
   id="svg3282"
   xml:space="preserve"
   width="682.66669"
   height="682.66669"
   viewBox="0 0 682.66669 682.66669"
   xmlns="http://www.w3.org/2000/svg"
   xmlns:svg="http://www.w3.org/2000/svg"><defs
     id="defs3286"><clipPath
       clipPathUnits="userSpaceOnUse"
       id="clipPath3300"><path
         d="M 0,512 H 512 V 0 H 0 Z"
         id="path3298" /></clipPath></defs><g
     id="g3288"
     transform="matrix(1.3333333,0,0,-1.3333333,0,682.66667)"><g
       id="g3290"
       transform="translate(307.5186,179.3564)"><path
         d="M 0,0 H -247.276 V 201.897 L -111.621,286.18 24.035,201.897 V 150.203"
         style="fill:none;stroke:#000000;stroke-width:15;stroke-linecap:round;stroke-linejoin:round;stroke-miterlimit:10;stroke-dasharray:none;stroke-opacity:1"
         id="path3292" /></g><g
       id="g3294"><g
         id="g3296"
         clip-path="url(#clipPath3300)"><g
           id="g3302"
           transform="translate(77.2974,433.9355)"><path
             d="m 0,0 -49.695,-30.58 c -7.544,-4.69 -10.463,-14.218 -6.836,-22.317 4.402,-9.829 16.481,-13.515 25.636,-7.826 L 118.6,31.199 268.096,-60.723 c 9.154,-5.689 21.234,-2.003 25.635,7.826 3.627,8.099 0.709,17.627 -6.835,22.317 L 125.927,68.474 c -2.442,1.393 -4.885,2.09 -7.327,2.09 -2.442,0 -4.884,-0.697 -7.327,-2.09 L 33.529,20.633"
             style="fill:none;stroke:#000000;stroke-width:15;stroke-linecap:round;stroke-linejoin:round;stroke-miterlimit:10;stroke-dasharray:none;stroke-opacity:1"
             id="path3304" /></g><path
           d="m 153.419,291.79 h 84.956 V 179.356 h -84.956 z"
           style="fill:none;stroke:#000000;stroke-width:15;stroke-linecap:round;stroke-linejoin:round;stroke-miterlimit:10;stroke-dasharray:none;stroke-opacity:1"
           id="path3306" /><g
           id="g3308"
           transform="translate(492.7847,137.9941)"><path
             d="m 0,0 v 163.133 c 0,14.885 -12.066,26.95 -26.95,26.95 h -131.366 c -14.884,0 -26.95,-12.065 -26.95,-26.95 v -266.678 c 0,-14.884 12.066,-26.949 26.95,-26.949 H -26.95 c 14.884,0 26.95,12.065 26.95,26.949 v 63.562"
             style="fill:none;stroke:#000000;stroke-width:15;stroke-linecap:round;stroke-linejoin:round;stroke-miterlimit:10;stroke-dasharray:none;stroke-opacity:1"
             id="path3310" /></g><g
           id="g3312"
           transform="translate(492.7847,137.9941)"><path
             d="M 0,0 V 150.153 H -185.266 V -71.55 H 0 v 31.567"
             style="fill:none;stroke:#000000;stroke-width:15;stroke-linecap:round;stroke-linejoin:round;stroke-miterlimit:10;stroke-dasharray:none;stroke-opacity:1"
             id="path3314" /></g><g
           id="g3316"
           transform="translate(378.7612,37.7725)"><path
             d="M 0,0 H 42.781"
             style="fill:none;stroke:#000000;stroke-width:15;stroke-linecap:round;stroke-linejoin:round;stroke-miterlimit:10;stroke-dasharray:none;stroke-opacity:1"
             id="path3318" /></g><g
           id="g3320"
           transform="translate(446.7573,110.668)"><path
             d="m 0,0 h -93.211 l 8.308,29.082 h 76.594 z"
             style="fill:none;stroke:#000000;stroke-width:15;stroke-linecap:round;stroke-linejoin:round;stroke-miterlimit:10;stroke-dasharray:none;stroke-opacity:1"
             id="path3322" /></g><g
           id="g3324"
           transform="translate(400.1514,212.0391)"><path
             d="m 0,0 v 0 c -16.416,0 -29.724,-13.309 -29.724,-29.725 v -42.564 h 59.448 v 42.564 C 29.724,-13.309 16.416,0 0,0 Z"
             style="fill:none;stroke:#000000;stroke-width:15;stroke-linecap:round;stroke-linejoin:round;stroke-miterlimit:10;stroke-dasharray:none;stroke-opacity:1"
             id="path3326" /></g><g
           id="g3328"
           transform="translate(341.2275,216.3506)"><path
             d="M 0,0 13.93,-8.825"
             style="fill:none;stroke:#000000;stroke-width:15;stroke-linecap:round;stroke-linejoin:round;stroke-miterlimit:10;stroke-dasharray:none;stroke-opacity:1"
             id="path3330" /></g><g
           id="g3332"
           transform="translate(373.0869,248.8574)"><path
             d="M 0,0 8.145,-15.591"
             style="fill:none;stroke:#000000;stroke-width:15;stroke-linecap:round;stroke-linejoin:round;stroke-miterlimit:10;stroke-dasharray:none;stroke-opacity:1"
             id="path3334" /></g><g
           id="g3336"
           transform="translate(459.0757,216.7783)"><path
             d="M 0,0 -13.93,-8.824"
             style="fill:none;stroke:#000000;stroke-width:15;stroke-linecap:round;stroke-linejoin:round;stroke-miterlimit:10;stroke-dasharray:none;stroke-opacity:1"
             id="path3338" /></g><g
           id="g3340"
           transform="translate(427.2163,249.2852)"><path
             d="M 0,0 -8.145,-15.59"
             style="fill:none;stroke:#000000;stroke-width:15;stroke-linecap:round;stroke-linejoin:round;stroke-miterlimit:10;stroke-dasharray:none;stroke-opacity:1"
             id="path3342" /></g><g
           id="g3344"
           transform="translate(452.4219,413.2354)"><path
             d="M 0,0 C -0.155,31.839 -26.043,57.728 -57.881,57.883"
             style="fill:none;stroke:#000000;stroke-width:15;stroke-linecap:round;stroke-linejoin:round;stroke-miterlimit:10;stroke-dasharray:none;stroke-opacity:1"
             id="path3346" /></g><g
           id="g3348"
           transform="translate(417.7349,413.2354)"><path
             d="M 0,0 C -0.062,12.759 -10.436,23.133 -23.194,23.194"
             style="fill:none;stroke:#000000;stroke-width:15;stroke-linecap:round;stroke-linejoin:round;stroke-miterlimit:10;stroke-dasharray:none;stroke-opacity:1"
             id="path3350" /></g><g
           id="g3352"
           transform="translate(485.8032,413.2354)"><path
             d="M 0,0 C -0.245,50.201 -41.063,91.021 -91.262,91.265"
             style="fill:none;stroke:#000000;stroke-width:15;stroke-linecap:round;stroke-linejoin:round;stroke-miterlimit:10;stroke-dasharray:none;stroke-opacity:1"
             id="path3354" /></g><g
           id="g3356"
           transform="translate(201.478,135.2236)"><path
             d="M 0,0 C 0.155,-31.838 26.042,-57.727 57.88,-57.882"
             style="fill:none;stroke:#000000;stroke-width:15;stroke-linecap:round;stroke-linejoin:round;stroke-miterlimit:10;stroke-dasharray:none;stroke-opacity:1"
             id="path3358" /></g><g
           id="g3360"
           transform="translate(236.1646,135.2236)"><path
             d="M 0,0 C 0.062,-12.758 10.436,-23.132 23.194,-23.194"
             style="fill:none;stroke:#000000;stroke-width:15;stroke-linecap:round;stroke-linejoin:round;stroke-miterlimit:10;stroke-dasharray:none;stroke-opacity:1"
             id="path3362" /></g><g
           id="g3364"
           transform="translate(168.0962,135.2236)"><path
             d="M 0,0 C 0.245,-50.2 41.063,-91.02 91.262,-91.265"
             style="fill:none;stroke:#000000;stroke-width:15;stroke-linecap:round;stroke-linejoin:round;stroke-miterlimit:10;stroke-dasharray:none;stroke-opacity:1"
             id="path3366" /></g></g></g></g></svg>
