<svg xmlns="http://www.w3.org/2000/svg" version="1.1" xmlns:xlink="http://www.w3.org/1999/xlink" xmlns:svgjs="http://svgjs.com/svgjs" width="512" height="512" x="0" y="0" viewBox="0 0 480.669 480.669" style="enable-background:new 0 0 512 512" xml:space="preserve" class=""><g><linearGradient id="a" x1="-26.83" x2="-26.83" y1="557.586" y2="615.474" gradientTransform="matrix(8 0 0 -8 454.977 4947.023)" gradientUnits="userSpaceOnUse"><stop stop-opacity="1" stop-color="#d6d3d1" offset="0.011583011583011582"></stop><stop stop-opacity="1" stop-color="#f5f5f4" offset="0.9922779922779923"></stop></linearGradient><path d="M479.571 120.109a8.001 8.001 0 0 0-4.856-3.728l-18.712-5.016a87.37 87.37 0 0 0-2.64-20.256l16.72-9.64a8 8 0 0 0 2.924-10.929l-.004-.007-16-27.68a8 8 0 0 0-10.91-2.994l-.018.01-16.72 9.664a86.785 86.785 0 0 0-16.24-12.424l5.016-18.712a8 8 0 0 0-5.648-9.8l-30.96-8.32a8 8 0 0 0-9.805 5.645l-.003.011-5.008 18.736a87.728 87.728 0 0 0-20.272 2.64l-9.632-16.72a8 8 0 0 0-4.864-3.728 7.936 7.936 0 0 0-6.072.8l-27.672 16c-.304.229-.59.48-.856.752a594.717 594.717 0 0 0-97.336-7.744c-96.96 0-200 22.4-200 64v336c0 41.6 103.04 64 200 64s200-22.4 200-64V215.621a7.696 7.696 0 0 0 10.168 2.056l27.672-16a8 8 0 0 0 2.966-10.918l-.006-.01-9.664-16.72a87.104 87.104 0 0 0 12.432-16.24l18.712 5.008a8 8 0 0 0 9.8-5.648l8.32-30.968a7.996 7.996 0 0 0-.832-6.072zm-279.568-87.44a575.068 575.068 0 0 1 98.768 8.096l6.12 10.552a87 87 0 0 0-12.424 16.232l-18.712-5.008a8 8 0 0 0-9.8 5.648l-8.32 30.968a8 8 0 0 0 5.654 9.8h.002l18.712 5.008a83.69 83.69 0 0 0 .648 9.36c-2.448.336-4.896.672-7.4.976-2.76.336-5.504.68-8.32.976-4.296.456-8.672.8-13.072 1.192-2.656.216-5.28.464-8 .648-4.888.336-9.864.576-14.848.8-2.312.104-4.584.256-6.904.336-7.328.248-14.72.392-22.136.392-113.968.024-183.968-27.928-183.968-47.976s70-48 184-48zm123.52 184.048 18.704 5.024c-1.104.376-2.24.744-3.384 1.112-2.208.704-4.448 1.4-6.808 2.08a302.521 302.521 0 0 1-5.864 1.6 272.408 272.408 0 0 1-7.632 1.912c-2.133.501-4.293.992-6.48 1.472a365.5 365.5 0 0 1-8.448 1.72c-2.304.448-4.632.888-7.032 1.312-3.024.528-6.16 1.016-9.32 1.504-2.472.376-4.936.752-7.496 1.104-3.344.456-6.824.864-10.312 1.264-2.584.296-5.128.608-7.784.872-3.76.376-7.672.68-11.584.992-2.592.208-5.12.44-7.776.616-4.432.288-9.04.488-13.6.688-2.328.096-4.568.24-6.936.32-7.083.24-14.339.36-21.768.36-114 0-184-27.952-184-48v-85.648c.176.128.392.256.568.384a80.668 80.668 0 0 0 5.872 3.96c.272.176.576.336.856.504a118.627 118.627 0 0 0 6.064 3.352l1.6.8a146.506 146.506 0 0 0 7.48 3.448l1.392.568c2.32.96 4.72 1.896 7.2 2.808.624.232 1.232.464 1.864.688a239.902 239.902 0 0 0 8.8 2.936l1.888.568a285.9 285.9 0 0 0 8.184 2.336c.68.184 1.352.376 2.04.552 3.237.848 6.552 1.648 9.944 2.4l2.312.512c2.976.667 5.997 1.301 9.064 1.904.688.136 1.368.28 2.056.408 3.56.688 7.2 1.328 10.856 1.944l2.624.424a400.09 400.09 0 0 0 9.896 1.488c.632.088 1.256.184 1.888.264 3.8.52 7.64.992 11.52 1.44l2.904.32c3.547.384 7.112.741 10.696 1.072l1.456.136c4 .352 8 .648 12 .92l2.992.2c3.808.24 7.621.448 11.44.624l.952.048c4.08.176 8.163.309 12.248.4l2.992.064c4.12.08 8.24.136 12.352.136 7.2 0 14.4-.152 21.536-.384 2.168-.072 4.304-.176 6.456-.264a760.92 760.92 0 0 0 15.2-.8c2.232-.144 4.464-.288 6.68-.464a545.788 545.788 0 0 0 16.872-1.536c1.192-.128 2.4-.216 3.6-.352.32 0 .664-.064.984-.096l-5.44 3.136a8 8 0 0 0-2.924 10.929l.004.007 16 27.68a8 8 0 0 0 10.926 2.937l.002-.001 16.72-9.664a86.785 86.785 0 0 0 16.24 12.424l-5.016 18.712a8 8 0 0 0 5.633 9.812l.047.012zm56.968-16.984c.264 0 .52 0 .8-.072-.12.168-.176.336-.304.504-.248.32-.552.64-.8.968a31.352 31.352 0 0 1-2.712 2.768c-.392.352-.8.704-1.192 1.056a50.857 50.857 0 0 1-4.912 3.64c-.096.064-.208.12-.296.184-1.392.896-3.016 1.784-4.616 2.672l2.84-10.784a86.475 86.475 0 0 0 11.192-.936zM16.003 219.021c.176.128.392.256.568.384a96.102 96.102 0 0 0 5.872 4c.272.176.576.336.856.504a118.627 118.627 0 0 0 6.064 3.352l1.6.8a146.506 146.506 0 0 0 7.48 3.448l1.392.568c2.32.96 4.72 1.896 7.2 2.808.624.232 1.232.464 1.864.688a239.902 239.902 0 0 0 8.8 2.936l1.888.568a285.9 285.9 0 0 0 8.184 2.336c.68.184 1.352.376 2.04.552 3.237.848 6.552 1.661 9.944 2.44l2.312.512a405.15 405.15 0 0 0 9.064 1.904c.688.136 1.368.28 2.056.408 3.56.688 7.2 1.328 10.856 1.944l2.624.424a400.09 400.09 0 0 0 9.896 1.488c.632.088 1.256.184 1.888.264 3.8.52 7.64.992 11.52 1.44l2.904.32c3.547.384 7.112.741 10.696 1.072l1.456.136c4 .352 8 .648 12 .92l2.992.2c3.808.24 7.621.448 11.44.624l.952.048c4.08.176 8.163.309 12.248.4l2.992.064c4.12.08 8.24.136 12.352.136s8.232-.056 12.352-.136l2.992-.064c4.091-.096 8.173-.229 12.248-.4l.952-.048a672.65 672.65 0 0 0 11.44-.624l2.992-.2c4-.272 8-.568 12-.92l1.456-.136c3.595-.325 7.16-.683 10.696-1.072l2.904-.32c3.88-.448 7.72-.92 11.52-1.44.632-.08 1.256-.176 1.888-.264a524.38 524.38 0 0 0 9.896-1.488l2.664-.464a447.43 447.43 0 0 0 10.856-1.944c.688-.128 1.368-.272 2.056-.408a393.679 393.679 0 0 0 9.064-1.904l2.312-.512a311.98 311.98 0 0 0 9.944-2.44c.688-.176 1.36-.368 2.04-.552a275.163 275.163 0 0 0 8.184-2.336l1.888-.568a227.263 227.263 0 0 0 8.8-2.936c.632-.224 1.24-.456 1.864-.688 2.48-.912 4.88-1.848 7.2-2.808l1.392-.568a142.635 142.635 0 0 0 7.48-3.448l1.6-.8a118.627 118.627 0 0 0 6.064-3.352c.28-.168.584-.328.856-.504a69.791 69.791 0 0 0 5.872-4c.176-.128.392-.256.568-.384v85.688c0 20.048-70 48-184 48s-184.04-27.952-184.04-48v-85.648zm368 197.648c0 20.048-70 48-184 48s-184-27.952-184-48v-85.648c.176.128.392.256.568.384a96.102 96.102 0 0 0 5.872 4c.272.176.576.336.856.504a118.627 118.627 0 0 0 6.064 3.352l1.6.8a146.506 146.506 0 0 0 7.48 3.448l1.392.568c2.32.96 4.72 1.896 7.2 2.808.624.232 1.232.464 1.864.688a220.652 220.652 0 0 0 8.8 2.936l1.888.568a285.9 285.9 0 0 0 8.184 2.336c.68.184 1.352.376 2.04.552 3.237.848 6.552 1.661 9.944 2.44l2.312.512a405.15 405.15 0 0 0 9.064 1.904c.688.136 1.368.28 2.056.408 3.56.688 7.2 1.328 10.856 1.944l2.624.424a400.09 400.09 0 0 0 9.896 1.488c.632.088 1.256.184 1.888.264 3.8.52 7.64.992 11.52 1.44l2.904.32c3.547.384 7.112.741 10.696 1.072l1.456.136c4 .352 8 .648 12 .92l2.992.2c3.808.24 7.621.448 11.44.624l.952.048c4.08.176 8.163.309 12.248.4l2.992.064c4.12.08 8.24.136 12.352.136s8.232-.056 12.352-.136l2.992-.064c4.091-.096 8.173-.229 12.248-.4l.952-.048a672.65 672.65 0 0 0 11.44-.624l2.992-.2c4-.272 8-.568 12-.92l1.456-.136c3.595-.325 7.16-.683 10.696-1.072l2.904-.32c3.88-.448 7.72-.92 11.52-1.44.632-.08 1.256-.176 1.888-.264a524.38 524.38 0 0 0 9.896-1.488l2.664-.464a447.43 447.43 0 0 0 10.856-1.944c.688-.128 1.368-.272 2.056-.408a393.679 393.679 0 0 0 9.064-1.904l2.312-.512a311.98 311.98 0 0 0 9.944-2.44c.688-.176 1.36-.368 2.04-.552a275.163 275.163 0 0 0 8.184-2.336l1.888-.568a227.263 227.263 0 0 0 8.8-2.936c.632-.224 1.24-.456 1.864-.688 2.48-.912 4.88-1.848 7.2-2.808l1.392-.568a142.635 142.635 0 0 0 7.48-3.448l1.6-.8a118.627 118.627 0 0 0 6.064-3.352c.28-.168.584-.328.856-.504a69.791 69.791 0 0 0 5.872-4c.176-.128.392-.256.568-.384l-.04 85.688zm74.664-271.4-17.064-4.6a8 8 0 0 0-9.24 4.168 71.107 71.107 0 0 1-16.624 21.736 8 8 0 0 0-1.6 9.984l8.8 15.24-13.824 8-8.8-15.2a8.176 8.176 0 0 0-9.6-3.496 8.636 8.636 0 0 0-1.088.256 70.836 70.836 0 0 1-25.896 3.2 8 8 0 0 0-8.256 5.92l-4.568 17.056-15.504-4.16 4.6-17.104a8 8 0 0 0-4.168-9.232 71.235 71.235 0 0 1-21.736-16.632 8 8 0 0 0-9.992-1.6l-15.2 8.8-8-13.832 15.2-8.8a8 8 0 0 0 3.568-9.52 47.136 47.136 0 0 1-1.752-6.576c0-.184-.08-.344-.112-.528a67.248 67.248 0 0 1-1.6-19.944 8 8 0 0 0-5.912-8.24l-17.064-4.576 4.168-15.504 17 4.584a8 8 0 0 0 9.24-4.168 71.107 71.107 0 0 1 16.624-21.736 8 8 0 0 0 1.6-9.992l-8.8-15.2 13.84-8 8.8 15.2a8.002 8.002 0 0 0 9.44 3.592 71.808 71.808 0 0 1 27.152-3.528 8.104 8.104 0 0 0 8.224-5.92l4.568-17.056 15.504 4.16-4.592 17.048a8 8 0 0 0 4.168 9.232 71.235 71.235 0 0 1 21.736 16.632 8 8 0 0 0 9.992 1.6l15.2-8.8 8 13.832-15.2 8.8a8 8 0 0 0-3.592 9.44 71.703 71.703 0 0 1 3.528 27.136 8 8 0 0 0 5.912 8.232l17.064 4.576-4.144 15.52z" style="fill:url(#a);" fill=""></path><linearGradient id="b" x1="-10.875" x2="-10.875" y1="557.586" y2="615.474" gradientTransform="matrix(8 0 0 -8 454.977 4947.023)" gradientUnits="userSpaceOnUse"><stop stop-opacity="1" stop-color="#f5f5f4" offset="0"></stop><stop stop-opacity="1" stop-color="#f5f5f4" offset="1"></stop></linearGradient><path d="M391.027 61.605a56.409 56.409 0 0 0-51.04 2.544c-21.583 12.392-32.352 37.578-26.4 61.744a56.742 56.742 0 0 0 5.888 14.784c15.515 26.734 49.716 35.908 76.528 20.528 26.738-15.516 35.916-49.719 20.536-76.536a55.618 55.618 0 0 0-25.512-23.064zm-61.888 60.552c-5.263-21.455 7.863-43.115 29.318-48.378s43.115 7.863 48.378 29.318a40.011 40.011 0 0 1-.224 19.932c-.096.344-.272.656-.368.992a40.866 40.866 0 0 1-2.32 6.208 40.012 40.012 0 0 1-3.672 6.008c-.136.184-.224.408-.36.592-13.563 17.605-38.83 20.882-56.435 7.319a40.264 40.264 0 0 1-10.101-11.431 40.583 40.583 0 0 1-4.216-10.56z" style="fill:url(#b);" fill=""></path></g></svg>