<svg xmlns="http://www.w3.org/2000/svg" version="1.1" xmlns:xlink="http://www.w3.org/1999/xlink" xmlns:svgjs="http://svgjs.com/svgjs" width="512" height="512" x="0" y="0" viewBox="0 0 1707 1707" style="enable-background:new 0 0 512 512" xml:space="preserve" fill-rule="evenodd" class=""><g><linearGradient id="a" x1="853.331" x2="853.331" y1="-.008" y2="1706.69" gradientUnits="userSpaceOnUse"><stop stop-opacity="1" stop-color="#e7e5e4" offset="0"></stop><stop stop-opacity="1" stop-color="#f5f5f4" offset="0.51"></stop><stop stop-opacity="1" stop-color="#f5f5f4" offset="1"></stop></linearGradient><path fill="url(#a)" d="M924 1340H783c-11 0-21-8-23-19l-25-155c-34-13-65-31-93-54l-147 56c-10 4-22-1-28-10l-70-122c-6-10-4-23 5-30l122-99c-6-35-6-72 0-108l-122-99c-9-7-11-19-5-29l70-122c6-10 18-14 28-10l147 56c28-23 59-41 93-54l25-155c2-11 12-19 23-19h141c11 0 21 8 22 19l25 155c34 13 66 31 94 54l146-56c11-4 23 0 28 10l71 122c5 10 3 22-6 29l-121 99c6 36 6 73 0 108l121 99c9 7 11 20 6 30l-71 122c-5 9-17 13-28 9l-146-55c-28 23-60 41-94 54l-25 155c-1 11-11 19-22 19zm-71-258c-126 0-228-102-228-229 0-126 102-228 228-228s229 102 229 228c0 127-103 229-229 229zm0-412c-101 0-183 82-183 183s82 183 183 183 183-82 183-183-82-183-183-183zm-393 782c-5 0-9-1-13-4-196-135-314-357-314-595 0-389 311-707 697-719V23c0-19 21-29 37-19l189 133c12 10 12 29 0 38L867 308c-16 11-37 0-37-19V179c-361 13-651 310-651 674 0 223 110 431 294 557 18 13 9 42-13 42zM876 67v178l127-89zm0 1460c361-12 652-310 652-674 0-222-110-431-294-556-25-18 1-55 26-38 196 134 313 357 313 594 0 390-310 708-697 720v111c0 18-21 29-36 18l-189-133c-13-9-13-28 0-37l189-133c15-11 36 0 36 18zm-172 24 126 89v-178zm98-257h102l24-149c5-29 45-13 117-77 6-5 15-7 23-4l142 54 50-88-117-96c-21-17 11-49-7-139-2-9 1-17 7-23l117-95-50-88-142 54c-27 10-34-33-124-63-8-3-14-10-16-18l-24-149H802l-24 149c-4 29-45 13-116 76-7 6-16 8-24 5l-141-54-51 88 117 95c22 18-10 51 8 140 2 8-1 17-8 22l-117 96 51 88 141-54c28-10 35 33 125 63 8 3 14 10 15 18z" data-original="url(#a)" class=""></path></g></svg>