<svg xmlns="http://www.w3.org/2000/svg" version="1.1" xmlns:xlink="http://www.w3.org/1999/xlink" xmlns:svgjs="http://svgjs.com/svgjs" width="512" height="512" x="0" y="0" viewBox="0 0 32 32" style="enable-background:new 0 0 512 512" xml:space="preserve" class=""><g><linearGradient id="a" x1="2.85" x2="29.15" y1="25.09" y2="6.91" gradientUnits="userSpaceOnUse"><stop stop-opacity="1" stop-color="#172554" offset="0.011583011583011582"></stop><stop stop-opacity="1" stop-color="#172554" offset="0.4980694980694981"></stop><stop stop-opacity="1" stop-color="#e7e5e4" offset="1"></stop></linearGradient><path fill="url(#a)" d="M20.53 12.53v6.93a1 1 0 0 1-1.07 1.06h-6.92a1 1 0 0 1-1.08-1.06v-6.93a1 1 0 0 1 1.08-1.06h6.92a1 1 0 0 1 1.07 1.06zM32 16A16 16 0 1 1 16 0a16 16 0 0 1 16 16zm-9.33-3.47a3.22 3.22 0 0 0-3.2-3.2h-6.93a3.22 3.22 0 0 0-3.21 3.2v6.93a3.22 3.22 0 0 0 3.21 3.2h6.92a3.22 3.22 0 0 0 3.2-3.2z" data-original="url(#a)" class=""></path></g></svg>