<svg xmlns="http://www.w3.org/2000/svg" version="1.1" xmlns:xlink="http://www.w3.org/1999/xlink" xmlns:svgjs="http://svgjs.com/svgjs" width="512" height="512" x="0" y="0" viewBox="0 0 3873 3873" style="enable-background:new 0 0 512 512" xml:space="preserve" class=""><g><linearGradient id="a" x1="540.557" x2="3321.815" y1="2268.238" y2="-513.021" gradientTransform="matrix(1 0 0 -1 0 3382.983)" gradientUnits="userSpaceOnUse"><stop stop-opacity="1" stop-color="#e7e5e4" offset="0"></stop><stop stop-opacity="1" stop-color="#f5f5f4" offset="0.9884169884169884"></stop></linearGradient><path fill="url(#a)" fill-rule="evenodd" d="M3562.3 3465.1c0-125.5-33.8-248.2-97.6-354.8-64.8-108.3-157.7-194.9-268.8-250.5-.3-.2-.8-.4-1.2-.6L2358 2475.8c-37.5-26.4-59.8-69.4-59.8-115.6v-136.8c42.8-27.9 83.3-60.8 120.6-98.7 45.8-46.6 84.7-98.4 116.3-153.9H2669c70.8 0 128.5-57.6 128.5-128.3v-193.4c31.6-20.8 51.4-56.4 51.4-95.7V1345c0-34.2-15.5-66.1-40.6-87.4 49.2-164.3 54.1-343.9 12.9-497.6-54.9-205.2-188.1-360-385-447.2-218.2-97-460-128.8-699.3-92.1-184.9 28.4-337.7 84.4-454.1 166.1-157.5 110.7-244.1 265.6-257.6 460.7-28.2 55.2-93.9 249.5 10.5 459.1-4.4 12.3-6.7 25.3-6.7 38.5v208.4c0 63.3 51.4 114.7 114.7 114.7h113.5c13.5 170.6 87.3 332 209.8 456.6 34.7 35.3 72.3 66.3 111.9 93v142.7c0 46.2-22.3 89.2-59.8 115.6l-836.6 383.4-1.2.6c-222.7 111.4-366.5 348.9-366.5 605.2V3639c0 22 17.8 39.8 39.8 39.8h3168c22 0 39.8-17.8 39.8-39.8zm-1409.6-594.9c-.1-.1-.2-.1-.3-.2l-141.9-94.1L2342 2556l259.4 118.9-201.9 325.7c-2.7 4.4-8.6 8-15.9 9.6-9.7 2.1-19.7.4-27.5-4.9zM1872 3187.9h132.8l71.6 411.4h-276zm138.7-79.5h-144.2l-69.5-191 141.4-93.8 144.2 95.7zm-284-239.8-205.9 136.6-.6.3c-7.2 5-17.2 6.6-26.9 4.6-7.3-1.6-13.2-5.2-15.9-9.7l-197.7-327.2 255.6-117.1 331.3 219.8-137.7 91.3c-.8.4-1.5.9-2.2 1.4zm942.3-977.2h-94.7c29.7-70.8 48.2-146.1 54.3-223.2h89.3v174.4c.1 26.9-21.9 48.8-48.9 48.8zm65.2-581.4c4.3 0 8.4.8 12.7 2.4 13.4 5 22.5 18.1 22.5 32.7v208.4c0 15.3-9.7 28.7-24.3 33.5-3.5 1.2-7.1 1.7-10.8 1.7h-105.5l-8.1-278.7zM1096.6 882.1c4.5-6.1 7.1-13.5 7.5-21.1 22-385.6 362.9-518.3 644.9-561.7 224.2-34.4 450.6-4.6 654.9 86.1 354.8 157.4 418.9 541.3 329.4 845h-115.1l-2.8-96.7c-.3-11.5-5.7-22.4-14.7-29.7s-20.7-10.3-32.1-8.3c-357.7 64.4-664.5-57.8-815.6-136.3-96.5-50.2-212.3-43.9-302.2 16.5l-187.7 126c-11.2 7.5-17.9 20.3-17.6 33.8l1.9 94.7h-103.6c-17.8 0-34.9 4-50.2 11.5-80.9-192.4-.9-352.5 3-359.8zm47.2 706.5c-19.4 0-35.1-15.7-35.1-35.2V1345c0-6.6 1.8-12.8 5.3-18.5 6.4-10.4 17.6-16.6 29.9-16.6H1249l5.5 278.7zm191.3 53.5-9.7-486.3 169.7-113.9c65.7-44.1 150.5-48.8 221.2-11.9 153.6 79.9 459.7 202.3 820.9 151.4l2.6 88.4v.5c0 .3.1.6.1.8l10.4 356.7c0 .3-.1.5-.1.7 0 .5.1.9.1 1.3l.4 13.4c-4.4 88.4-26.6 172.4-62.7 248.2h-165.2c-17-54.6-68-94.3-128.1-94.3h-213.1c-74 0-134.2 60.2-134.2 134.2 0 73.9 60.2 134.1 134.2 134.1h213.1c60.2 0 111.2-39.8 128.2-94.5h120.3c-51.9 78.7-119.9 145.1-198.5 193.4-4.4 1.6-8.3 4-11.8 7-86.9 50.8-185.9 79.9-289.9 79.9-107.5 0-209.7-31.1-298.7-85.1-3.2-2.7-6.7-5-10.6-6.6-169.4-107.6-288.2-299.2-298.6-517.4zm914.3 289.2c0 30.1-24.5 54.6-54.6 54.6h-213.1c-30.1 0-54.6-24.5-54.6-54.6 0-30.2 24.5-54.7 54.6-54.7h213.1c30.1 0 54.5 24.4 54.6 54.5zm-306.5 399.4c95.8 0 189.3-21.7 275.7-62.7v92.2c0 54.4 19.9 105.9 54.8 145.7l-335 222.2-334.7-222.1c34.9-39.8 54.7-91.3 54.7-145.7V2264c88.9 43.6 185.5 66.7 284.5 66.7zM394.3 3465.2c0-226.2 126.4-435.7 322-533.8l490.6-224.8 202.3 334.9c13.9 23.3 38.4 40.2 67.2 46.5 8.3 1.8 16.8 2.7 25.1 2.7 22.8 0 45-6.6 63.4-19.3l163.9-108.7 68.7 189-78 447.7H909.4v-212.2c0-22-17.8-39.8-39.8-39.8s-39.8 17.8-39.8 39.8v212.2H394.3zm3088.5 134.1h-435.5v-212.2c0-22-17.8-39.8-39.8-39.8-21.9 0-39.8 17.8-39.8 39.8v212.2h-810.6l-77.9-447.4 71.3-187.6 161 106.8c18.5 12.8 40.9 19.5 63.8 19.5 8.4 0 16.8-.9 25.1-2.7 28.8-6.3 53.3-23.2 66.9-45.9l206.8-333.8 486.8 223c195.5 98.2 321.8 307.6 321.8 533.8v134.3z" clip-rule="evenodd" data-original="url(#a)"></path></g></svg>