<svg xmlns="http://www.w3.org/2000/svg" version="1.1" xmlns:xlink="http://www.w3.org/1999/xlink" xmlns:svgjs="http://svgjs.com/svgjs" width="512" height="512" x="0" y="0" viewBox="0 0 491.5 491.5" style="enable-background:new 0 0 512 512" xml:space="preserve" class=""><g><linearGradient id="a" x1="245.76" x2="245.76" y1="35.53" y2="456" gradientUnits="userSpaceOnUse"><stop stop-opacity="1" stop-color="#f704fe" offset="0"></stop><stop stop-opacity="1" stop-color="#fbfbfb" offset="0"></stop><stop stop-opacity="1" stop-color="#6d6d6d" offset="1"></stop></linearGradient><path fill="url(#a)" d="M350.4 223.1v-9.4h-9.6v9.4c0 5.3-4.3 9.6-9.6 9.6h-61.7c.4 1.5.6 3.1.6 4.8 0 1.6-.2 3.3-.6 4.8h61.7c10.6 0 19.2-8.6 19.2-19.2zM217 361.6l-10.2 9.6c-2 1.9-5.1 1.7-6.9-.3l-57.2-65.2-20.7 2.8c-41 5.5-69.7 33.9-69.7 69.1V456h160.1l13.1-68.4zm222.2 15.9c0-35.2-28.7-63.7-69.7-69.1l-20.6-2.8-57.2 65.2c-1.8 2-4.9 2.2-6.9.3l-10.2-9.6-8.5 26 13.1 68.4h160.1v-78.4zm-204.8 14.6L222.2 456h47.1l-12.2-63.9zm-30.5-31.3 34.1-32.2-47.2-29.4-36.6 4.9zm53.7 21.7 9.2-28.2-21-19.9-21 19.9 9.2 28.2zm79.8-78.4-36.6-4.9-47.2 29.4 34.1 32.2zm-42.5-39.2c-14 9.7-30.9 15.4-49.2 15.4s-35.2-5.7-49.2-15.4v26.7l49.2 30.6 49.2-30.6zm-125.9-71c0 41.7 33.9 76.7 76.7 76.7 20.2 0 39.8-8.1 54.1-22.4h-33c-3.5 5.4-9.6 9-16.6 9h-12.6c-10.9 0-19.8-8.9-19.8-19.8s8.9-19.8 19.8-19.8h12.6c6.9 0 13 3.6 16.6 9h48.3c4.8-10.2 7.4-21.5 7.4-32.8v-42.2c-8.3 2.5-23.6 6.3-40.8 6.3-14.3 0-29.9-2.6-44.1-10.5-29.5-16.6-60-3.8-68.6.5zm153.4-52.2c-1.8-40.7-35.5-73.3-76.7-73.3-39.6 0-72.4 30.2-76.3 68.8 13.6-5.9 43.2-14.7 72.9 2 29.9 16.8 68.9 6.1 80.1 2.5zm-163 13.2v-10.4c.3-47.4 38.9-85.8 86.3-85.8 47.6 0 86.3 38.7 86.3 86.3v9.9h23.2V145c0-60.4-49.2-109.6-109.6-109.6S136.2 84.7 136.2 145.1v9.9zm172.7 9.6v42h13.5c9 0 16.2-7 16.2-16v-9.9c0-8.8-7.2-16-16-16h-13.7zm-186.4 42.1h13.7v-42h-13.7c-8.8 0-16 7.2-16 16v9.9c0 8.9 7.2 16.1 16 16.1zm92 18.3c-6.9 0-12.6 5.6-12.6 12.6s5.6 12.6 12.6 12.6h12.6c6.9 0 12.6-5.6 12.6-12.6 0-6.9-5.6-12.6-12.6-12.6z" data-original="url(#a)" class=""></path></g></svg>