<svg xmlns="http://www.w3.org/2000/svg" version="1.1" xmlns:xlink="http://www.w3.org/1999/xlink" xmlns:svgjs="http://svgjs.com/svgjs" width="512" height="512" x="0" y="0" viewBox="0 0 64 64" style="enable-background:new 0 0 512 512" xml:space="preserve" class=""><g><linearGradient id="a" x1="32" x2="32" y1="65.618" y2="4.733" gradientUnits="userSpaceOnUse"><stop stop-opacity="1" stop-color="#e7e5e4" offset="0"></stop><stop stop-opacity="1" stop-color="#f5f5f4" offset="1"></stop></linearGradient><linearGradient xlink:href="#a" id="b" x1="55" x2="55" y1="65.618" y2="4.733"></linearGradient><path fill="url(#a)" d="M57.94 26.07a1.094 1.094 0 0 0 .5.13 1.153 1.153 0 0 0 .26-.03 1.026 1.026 0 0 0 .61-.47l3-5.2a1.01 1.01 0 0 0-.37-1.37l-29.44-17a1.044 1.044 0 0 0-1 0l-29.44 17a1.01 1.01 0 0 0-.37 1.37l3 5.2a1.026 1.026 0 0 0 .61.47 1.061 1.061 0 0 0 .76-.1L8 24.95V54H5a1 1 0 0 0-1 1v6a1 1 0 0 0 1 1h54a1 1 0 0 0 1-1v-6a1 1 0 0 0-1-1h-3V24.95zM58 56v4H6v-4zm-48-2V23.79l22-12.71 22 12.71V54zM32.5 9.06a1.027 1.027 0 0 0-1 0L5.93 23.83l-2.01-3.46L32 4.15l28.08 16.22-2.01 3.46z" data-original="url(#a)" class=""></path><path fill="url(#a)" d="M31.118 16.527a43.713 43.713 0 0 1-4.518 6.728 8.959 8.959 0 0 0-2.105 7.122l.205 1.493-2.134-1.49a1 1 0 0 0-.789-.156 1.006 1.006 0 0 0-.649.476A13.251 13.251 0 0 0 19 37a13.006 13.006 0 0 0 12.285 12.964 7.118 7.118 0 0 0 1.43 0A13.006 13.006 0 0 0 45 37c0-2.458-1.374-5.783-4.2-10.162a1 1 0 0 0-1.5-.207l-.835.74a9.017 9.017 0 0 0-1.871-6.4 96.74 96.74 0 0 0-3.847-4.638 1 1 0 0 0-1.626.2zM27 43c0-1.93 2.793-6.836 5-10.2.32.491.711 1.1 1.131 1.783a7.069 7.069 0 0 1 1.029 4.178L34 40.93a1 1 0 0 0 1.506.931l1.076-.636A5.611 5.611 0 0 1 37 43a5 5 0 0 1-10 0zm8.015-20.8a7.018 7.018 0 0 1 1.375 5.57l-.373 2.05a1 1 0 0 0 1.646.928l2.078-1.84C42.416 33.256 43 35.7 43 37a10.988 10.988 0 0 1-4.679 8.988A6.945 6.945 0 0 0 39 43a9.708 9.708 0 0 0-1-3.627 1 1 0 0 0-1.427-.464l-.439.26.018-.268a8.96 8.96 0 0 0-1.32-5.369c-1.093-1.771-1.97-3.046-2.007-3.1A1 1 0 0 0 32 30a1 1 0 0 0-.823.432C30.545 31.348 25 39.48 25 43a6.945 6.945 0 0 0 .679 2.988A10.988 10.988 0 0 1 21 37a9.973 9.973 0 0 1 1.331-4.342l3.1 2.162a1 1 0 0 0 1.562-.957l-.522-3.763a6.965 6.965 0 0 1 1.634-5.536 41.543 41.543 0 0 0 4.069-5.842c.689.808 1.707 2.028 2.841 3.478z" data-original="url(#a)" class=""></path><g fill="url(#b)"><path d="M55 2a7.948 7.948 0 0 0-5.657 2.343 1 1 0 1 0 1.414 1.414 6 6 0 0 1 8.486 0 1 1 0 1 0 1.414-1.414A7.948 7.948 0 0 0 55 2z" fill=""></path><path d="M57.83 8.17a1 1 0 0 0 .7-1.712 5.007 5.007 0 0 0-7.064 0 1 1 0 1 0 1.4 1.424 3.082 3.082 0 0 1 4.256 0 1 1 0 0 0 .708.288z" fill=""></path><circle cx="55" cy="10" r="2" fill=""></circle></g></g></svg>