<svg xmlns="http://www.w3.org/2000/svg" version="1.1" xmlns:xlink="http://www.w3.org/1999/xlink" xmlns:svgjs="http://svgjs.com/svgjs" width="512" height="512" x="0" y="0" viewBox="0 0 512 512" style="enable-background:new 0 0 512 512" xml:space="preserve" class=""><g><linearGradient id="a" x1="-11.742" x2="431.495" y1="473.413" y2="30.176" gradientUnits="userSpaceOnUse"><stop stop-opacity="1" stop-color="#e7e5e4" offset="0"></stop><stop stop-opacity="1" stop-color="#e7e5e4" offset="0.304"></stop><stop stop-opacity="1" stop-color="#f5f5f4" offset="0.944"></stop><stop stop-opacity="1" stop-color="#f5f5f4" offset="1"></stop></linearGradient><path fill="url(#a)" d="M377.102 142.59V86.877c.498.043.985.06 1.484.107 25.115 2.461 48.426-16.865 48.426-43.192A43.361 43.361 0 0 0 385.195.321C316.8-2.572 272.687 14.821 233.76 30.172c-40.025 15.78-71.789 28.238-116.662 12.029C111.406 18.054 89.728.006 63.869.006 33.682.006 9.125 24.563 9.125 54.747v427.039c0 16.659 13.552 30.21 30.213 30.21 16.656 0 30.208-13.552 30.208-30.21V361.075h11.729c20.583 0 37.333-16.747 37.333-37.333V301.32c48.929-119.718 108.695-187.71 184.7-208.459v49.745c-68.547 20.807-120.2 98.552-125.737 196.977-.708 12.43 9.367 22.434 21.333 22.434h14.792c2.917 70.599 60.588 123.847 128.971 123.847 68.359 0 126.004-53.344 128.914-123.847h9.927c11.962 0 22.041-10.001 21.333-22.434-5.531-98.451-57.187-176.212-125.739-196.993zm5.99 325.394c-25.91 9.435-54.796 9.504-80.905.001v-30.602c0-22.289 18.135-40.424 40.478-40.424 22.291 0 40.426 18.135 40.426 40.424v30.601zm10.666-4.373v-26.227c0-28.171-22.921-51.09-51.145-51.09-28.171 0-51.093 22.919-51.093 51.09v26.232c-39.556-18.833-65.316-57.57-67.29-101.59h236.818c-1.974 43.997-27.73 82.732-67.29 101.585zM58.879 481.786c0 10.776-8.765 19.544-19.541 19.544s-19.546-8.768-19.546-19.544V361.075H58.88v120.711zm49.062-158.044c0 14.703-11.963 26.666-26.666 26.666H19.792V54.748c0-24.302 19.77-44.075 44.077-44.075 24.302 0 44.072 19.773 44.072 44.075zm10.666-49.618V54.04c46.051 14.846 80.035 1.448 119.065-13.945 37.942-14.958 80.962-31.937 147.096-29.114a32.729 32.729 0 0 1 31.578 32.812c0 19.845-17.673 34.451-36.739 32.575-112.857-10.477-196.256 52.485-261 197.756zM313.973 90.28c16.706-3.53 34.169-4.9 52.463-4.101v53.675c-8.527-1.803-17.268-2.787-26.197-2.787-8.953 0-17.716.99-26.265 2.801V90.28zm167.534 261.071H198.903c-6.107 0-11.025-5.105-10.687-11.169 6.073-107.915 72.848-192.449 152.023-192.449 79.144 0 145.893 84.535 151.955 192.449.338 6.071-4.589 11.169-10.687 11.169zM342.64 412.108c-13.219 0-23.968 10.752-23.968 23.971 0 13.216 10.75 23.968 23.968 23.968s23.968-10.752 23.968-23.968c0-13.219-10.75-23.971-23.968-23.971zm0 37.273c-7.333 0-13.302-5.966-13.302-13.302s5.969-13.304 13.302-13.304 13.302 5.969 13.302 13.304-5.969 13.302-13.302 13.302zm71.894-213.634a5.332 5.332 0 1 1-7.542 7.542c-36.843-36.843-96.764-36.869-133.576-.063a5.332 5.332 0 1 1-7.542-7.542c40.964-40.973 107.656-40.937 148.66.063zm-24.468 24.468a5.332 5.332 0 1 1-7.542 7.542c-23.703-23.698-61.672-23.029-84.639-.063a5.332 5.332 0 1 1-7.542-7.542c27.477-27.487 72.196-27.464 99.723.063zm-44.52 49.811c0 3.293-2.628 5.333-5.281 5.333-2.997 0-5.333-2.291-5.333-5.333a5.275 5.275 0 0 1 5.286-5.307c3.069.001 5.328 2.444 5.328 5.307zm20.051-25.345a5.332 5.332 0 1 1-7.542 7.542c-10.042-10.048-26.007-9.764-35.702-.063a5.332 5.332 0 1 1-7.542-7.542c14.042-14.041 36.749-13.985 50.786.063z" data-original="url(#a)" class=""></path></g></svg>