<svg id="Layer_2" height="512" viewBox="0 0 64 64" width="512" xmlns="http://www.w3.org/2000/svg" data-name="Layer 2"><path d="m58 8h-52a1 1 0 0 0 -1 1v6a1 1 0 0 0 1 1h52a1 1 0 0 0 1-1v-6a1 1 0 0 0 -1-1zm-23 5h-6a1 1 0 0 1 0-2h6a1 1 0 0 1 0 2z"/><path d="m10 22a22 22 0 0 0 44 0zm22 20a9 9 0 1 1 9-9 9.01 9.01 0 0 1 -9 9z"/><path d="m32 25a8 8 0 1 0 8 8 8 8 0 0 0 -8-8zm0 13.444a5.444 5.444 0 1 1 5.444-5.444 5.45 5.45 0 0 1 -5.444 5.444z"/><circle cx="32" cy="33" r="4.444"/><path d="m32 60a14.275 14.275 0 0 1 -10.161-4.213 1 1 0 0 1 1.414-1.414 12.361 12.361 0 0 0 17.494 0 1 1 0 0 1 1.414 1.414 14.275 14.275 0 0 1 -10.161 4.213z"/><path d="m32 56.4a9.42 9.42 0 0 1 -6.706-2.78 1 1 0 1 1 1.414-1.414 7.479 7.479 0 0 0 10.584 0 1 1 0 0 1 1.414 1.414 9.42 9.42 0 0 1 -6.706 2.78z"/><path d="m32 52.8a4.38 4.38 0 0 1 -3.106-1.285 1 1 0 0 1 1.414-1.415 2.4 2.4 0 0 0 3.384 0 1 1 0 0 1 1.414 1.414 4.38 4.38 0 0 1 -3.106 1.286z"/><path d="m32 47a1.2 1.2 0 1 0 1.2 1.2 1.2 1.2 0 0 0 -1.2-1.2z"/><path d="m10 17h44v4h-44z"/></svg>