<svg xmlns="http://www.w3.org/2000/svg" version="1.1" xmlns:xlink="http://www.w3.org/1999/xlink" xmlns:svgjs="http://svgjs.com/svgjs" width="512" height="512" x="0" y="0" viewBox="0 0 64 64" style="enable-background:new 0 0 512 512" xml:space="preserve" class=""><g><linearGradient id="a" x1="4" x2="60" y1="32" y2="32" gradientUnits="userSpaceOnUse"><stop stop-opacity="1" stop-color="#f5f5f4" offset="0"></stop><stop stop-opacity="1" stop-color="#e7e5e4" offset="1"></stop></linearGradient><path fill="url(#a)" d="M60 11.02v4.532c0 2.206-2.24 3.997-5 3.997H9c-2.76 0-5-1.791-5-3.997v-4.533c0-1.318 1.35-2.398 3-2.398h50c1.65 0 3 1.08 3 2.398zm-5 10.529a5.962 5.962 0 0 0 .85-.06v10.04a23.966 23.966 0 0 1-9.27 18.87c.016-1.445-.021-4.543 0-6a14.473 14.473 0 0 0-4.27-10.29c-9.053-9.148-24.923-2.59-24.89 10.29v6a23.966 23.966 0 0 1-9.27-18.87v-10.04a5.962 5.962 0 0 0 .85.06zm-8.52 2.38a1.14 1.14 0 0 0 0 2.28 1.14 1.14 0 0 0 0-2.28zm4 0a1.14 1.14 0 0 0 0 2.28 1.14 1.14 0 0 0 0-2.28zm-5.9 20.47v7.39a23.837 23.837 0 0 1-25.16 0v-7.39a12.58 12.58 0 0 1 25.16 0zm-5.68-1.79c-.352-9.138-13.447-9.14-13.8 0a6.9 6.9 0 0 0 13.8 0zm-6.9 4.9a4.9 4.9 0 0 1 0-9.8 4.9 4.9 0 0 1 0 9.8zm0-6.4a1.5 1.5 0 0 0 0 3 1.5 1.5 0 0 0 0-3z" data-original="url(#a)" class=""></path></g></svg>