<svg xmlns="http://www.w3.org/2000/svg" version="1.1" xmlns:xlink="http://www.w3.org/1999/xlink" xmlns:svgjs="http://svgjs.com/svgjs" width="512" height="512" x="0" y="0" viewBox="0 0 512 512" style="enable-background:new 0 0 512 512" xml:space="preserve" class=""><g><linearGradient id="a" x1="256" x2="256" y1="509.922" y2="2.078" gradientUnits="userSpaceOnUse"><stop stop-opacity="1" stop-color="#e7e5e4" offset="0"></stop><stop stop-opacity="1" stop-color="#f5f5f4" offset="0.682"></stop><stop stop-opacity="1" stop-color="#f5f5f4" offset="0.9884169884169884"></stop></linearGradient><path fill="url(#a)" d="M62.924 116.018v200.851c0 106.451 86.605 193.053 193.1 193.053 106.448 0 193.053-86.602 193.053-193.053V116.026c29.733-2.271 52.646-27.051 52.646-56.867 0-31.476-25.608-57.081-57.083-57.081H67.361c-31.577 0-57.083 25.495-57.083 57.081 0 29.978 23.242 54.58 52.646 56.859zM438.46 316.869c0 100.596-81.841 182.437-182.483 182.437-100.596 0-182.437-81.841-182.437-182.437V116.242h364.92zM67.361 12.695h377.278c25.623 0 46.467 20.844 46.467 46.464 0 25.206-20.364 46.467-46.467 46.467H67.361c-25.623 0-46.467-20.844-46.467-46.467 0-25.713 20.749-46.464 46.467-46.464zm188.662 420.347c59.437 0 107.796-48.357 107.796-107.796 0-59.437-48.359-107.793-107.796-107.793-59.463 0-107.843 48.357-107.843 107.793.001 59.439 48.381 107.796 107.843 107.796zm0-204.973c53.584 0 97.18 43.593 97.18 97.177s-43.595 97.18-97.18 97.18c-53.61 0-97.226-43.595-97.226-97.18s43.616-97.177 97.226-97.177zm-.01 148.371c28.225 0 51.189-22.967 51.189-51.195s-22.964-51.192-51.189-51.192c-28.241 0-51.215 22.964-51.215 51.192 0 28.229 22.974 51.195 51.215 51.195zm0-91.77c22.373 0 40.573 18.203 40.573 40.576 0 22.376-18.2 40.578-40.573 40.578-22.389 0-40.599-18.203-40.599-40.578 0-22.373 18.21-40.576 40.599-40.576zm-123.56-91.757c15.51 0 28.132-12.62 28.132-28.132 0-15.538-12.622-28.179-28.132-28.179-15.536 0-28.179 12.641-28.179 28.179 0 15.512 12.644 28.132 28.179 28.132zm0-45.695c9.657 0 17.516 7.879 17.516 17.563 0 9.657-7.859 17.516-17.516 17.516-9.683 0-17.563-7.859-17.563-17.516.001-9.684 7.88-17.563 17.563-17.563z" data-original="url(#a)" class=""></path></g></svg>