<svg xmlns="http://www.w3.org/2000/svg" version="1.1" xmlns:xlink="http://www.w3.org/1999/xlink" xmlns:svgjs="http://svgjs.com/svgjs" width="512" height="512" x="0" y="0" viewBox="0 0 512 512" style="enable-background:new 0 0 512 512" xml:space="preserve"><g><linearGradient id="a" x1="-16.948" x2="426.262" y1="473.51" y2="30.301" gradientUnits="userSpaceOnUse"><stop stop-opacity="1" stop-color="#e7e5e4" offset="0.003861003861003861"></stop><stop stop-opacity="1" stop-color="#e7e5e4" offset="0.3127413127413127"></stop><stop stop-opacity="1" stop-color="#f5f5f4" offset="0.9343629343629344"></stop></linearGradient><path fill="url(#a)" d="M371.779 97.559v22.878c-11.892-3.093-24.265-4.693-36.904-4.693s-25.011 1.6-36.904 4.693v-16.532c24.869-7.262 48.799-8.445 73.808-6.346zM53.233.271C24.893 2.944 3.809 27.859 3.809 56.325v304.734h72.154c20.617 0 37.33-16.713 37.33-37.33V54.736c.001-31.931-27.511-57.535-60.06-54.465zM3.809 371.724v110.071c0 16.639 13.545 30.184 30.237 30.184 16.639 0 30.184-13.546 30.184-30.184V371.724zM373.273 87c12.372 1.226 24.905-2.88 34.184-11.359 9.172-8.266 14.239-19.572 14.239-31.838 0-23.465-18.399-42.556-41.863-43.463-68.368-2.88-112.471 14.505-151.401 29.864-36.477 14.399-66.075 26.025-105.058 15.679.373 2.88.587 5.866.587 8.853v221.582C186.461 137.343 266.135 77.028 373.273 87zm4.479 361.038v31.197c-26.532 8.844-54.518 8.794-80.9 0v-31.197c0-22.292 18.132-40.423 40.477-40.423 22.291-.001 40.423 18.131 40.423 40.423zm-16.478-1.28c0-13.225-10.773-23.998-23.945-23.998-13.225 0-23.998 10.773-23.998 23.998 0 13.172 10.773 23.945 23.998 23.945 13.172 0 23.945-10.773 23.945-23.945zm-23.971-13.33c-7.333 0-13.301 5.968-13.301 13.304 0 7.335 5.968 13.301 13.301 13.301s13.301-5.966 13.301-13.301-5.968-13.304-13.301-13.304zm-51.116 41.846v-27.237c0-28.17 22.92-51.087 51.09-51.087 28.222 0 51.142 22.917 51.142 51.087v27.233c39.21-16.875 66.851-51.17 75.353-91.92H210.886c8.451 40.75 36.09 75.096 75.301 91.924zm189.959-102.591H193.554c-17.778 0-33.013-14.923-31.982-33.703 6.828-121.191 81.332-212.569 173.304-212.569 91.998 0 166.476 91.381 173.252 212.558 1.158 18.378-13.783 33.714-31.982 33.714zm-135.937-73.275c0-3.09-2.424-5.332-5.352-5.29-2.99.042-5.262 2.311-5.262 5.29 0 3.191 2.535 5.333 5.333 5.333 2.723 0 5.281-2.162 5.281-5.333zm20.05-25.36c-13.421-13.431-36.046-14.802-50.782-.06a5.331 5.331 0 0 0 0 7.541 5.331 5.331 0 0 0 7.541 0c9.889-9.884 25.833-9.813 35.7.06a5.331 5.331 0 0 0 7.541 0 5.33 5.33 0 0 0 0-7.541zm24.467-24.464c-27.503-27.513-72.244-27.539-99.716-.063-2.083 2.083-2.083 5.458 0 7.541s5.458 2.083 7.541 0c23.321-23.318 61.281-23.282 84.634.063 2.083 2.083 5.458 2.083 7.541 0s2.083-5.458 0-7.541zm24.467-24.464c-41.002-40.997-107.679-41.033-148.649-.062-2.083 2.083-2.083 5.458 0 7.541s5.458 2.083 7.541 0c36.81-36.81 96.727-36.778 133.567.063a5.332 5.332 0 1 0 7.541-7.542z" data-original="url(#a)"></path></g></svg>