<svg xmlns="http://www.w3.org/2000/svg" version="1.1" xmlns:xlink="http://www.w3.org/1999/xlink" xmlns:svgjs="http://svgjs.com/svgjs" width="512" height="512" x="0" y="0" viewBox="0 0 512 512" style="enable-background:new 0 0 512 512" xml:space="preserve" class=""><g><linearGradient id="a" x1="28.443" x2="483.557" y1="256" y2="256" gradientUnits="userSpaceOnUse"><stop stop-opacity="1" stop-color="#e7e5e4" offset="0.07722007722007722"></stop><stop stop-opacity="1" stop-color="#f5f5f4" offset="1"></stop></linearGradient><path fill="url(#a)" d="M192.331 63.243h-36.9a6.388 6.388 0 0 1 0-12.776h36.9a6.388 6.388 0 1 1 0 12.776zm16.33 391.242a16.645 16.645 0 0 1-16.626 16.625h-36.312a16.626 16.626 0 0 1 0-33.251h36.312a16.645 16.645 0 0 1 16.626 16.626zm-12.776 0a3.9 3.9 0 0 0-3.85-3.851h-36.312a3.85 3.85 0 1 0 0 7.7h36.312a3.9 3.9 0 0 0 3.85-3.849zm156.851-95.069a150.424 150.424 0 0 1-33.421.573v108.245A27.793 27.793 0 0 1 291.554 496H56.205a27.793 27.793 0 0 1-27.762-27.762V43.766A27.793 27.793 0 0 1 56.205 16h235.349a27.793 27.793 0 0 1 27.761 27.762V61.2a150.049 150.049 0 0 1 162.99 130.131C492.923 273.4 434.8 348.8 352.736 359.416zm-46.2 108.818v-45.692H41.219v45.692a15 15 0 0 0 14.986 14.986h235.349a15 15 0 0 0 14.986-14.986zm0-110.021a149.246 149.246 0 0 1-29.5-8.562 153.442 153.442 0 0 1-64.991 13.981 184.064 184.064 0 0 1-27.975-2.194 6.389 6.389 0 0 1-3.552-10.826c10.594-10.618 21.066-28.217 31.148-52.337A150.091 150.091 0 0 1 306.54 62.96V43.766a15 15 0 0 0-14.986-14.986H56.205a15 15 0 0 0-14.986 14.986v366H306.54zm163.1-165.239A137.29 137.29 0 0 0 315.864 74.435a137.326 137.326 0 0 0-91.83 219.078 6.387 6.387 0 0 1 .83 6.269c-8.784 21.6-17.716 38.242-27.107 50.444 27.551 2.391 53.177-2.073 76.329-13.312a6.394 6.394 0 0 1 5.312-.123 137.1 137.1 0 0 0 71.7 9.954c75.074-9.713 128.251-78.695 118.538-153.771zm-47.093 71.959a20.407 20.407 0 0 1-20.384 20.384h-41.516a27.293 27.293 0 0 1-54.328 0H264.8a20.381 20.381 0 0 1-2.492-40.61q1.207-1.43 2.3-2.713c11.929-14.053 11.929-14.053 11.929-42.61 0-26.351 14.06-49.063 34.177-59.182a23.107 23.107 0 1 1 45.685-.587c20.743 9.813 35.347 32.907 35.347 59.769 0 2.15 0 4.152-.008 6.02-.025 12.418-.038 18.65 1.2 22.809 1.12 3.78 3.682 6.827 9.3 13.5.785.933 1.627 1.936 2.516 3a20.409 20.409 0 0 1 17.789 20.22zm-99.324-129.172a50.85 50.85 0 0 1 20.575-.255 10.321 10.321 0 0 0-20.575.255zm-33.909 63.623c0 27.434-.642 33.068-10.237 45.165h108.946c-9.114-11.506-9.106-15.652-9.058-39.171 0-1.86.008-3.854.008-5.994 0-28.69-20.11-52.031-44.829-52.031s-44.83 23.341-44.83 52.031zm58.435 85.933h-28.531a14.507 14.507 0 0 0 28.531 0zm62.022-20.384a7.617 7.617 0 0 0-7.608-7.609H264.8a7.609 7.609 0 1 0 0 15.217h137.359a7.617 7.617 0 0 0 7.608-7.608z" data-original="url(#a)" class=""></path></g></svg>