<svg xmlns="http://www.w3.org/2000/svg" version="1.1" xmlns:xlink="http://www.w3.org/1999/xlink" xmlns:svgjs="http://svgjs.com/svgjs" width="512" height="512" x="0" y="0" viewBox="0 0 512 512" style="enable-background:new 0 0 512 512" xml:space="preserve" class=""><g><linearGradient id="a" x1="256" x2="256" y1="512" gradientUnits="userSpaceOnUse"><stop stop-opacity="1" stop-color="#3b82f6" offset="0"></stop><stop stop-opacity="1" stop-color="#3b82f6" offset="0.08494208494208494"></stop><stop stop-opacity="1" stop-color="#3b82f6" offset="0.501"></stop><stop stop-opacity="1" stop-color="#172554" offset="0.815"></stop><stop stop-opacity="1" stop-color="#172554" offset="1"></stop></linearGradient><path fill="url(#a)" d="M378.329 0H133.671a40.131 40.131 0 0 0-40.086 40.086v431.828A40.131 40.131 0 0 0 133.671 512h244.658a40.131 40.131 0 0 0 40.086-40.086V40.086A40.131 40.131 0 0 0 378.329 0zm24.086 471.914A24.113 24.113 0 0 1 378.329 496H133.671a24.113 24.113 0 0 1-24.086-24.086V40.086A24.113 24.113 0 0 1 133.671 16h244.658a24.113 24.113 0 0 1 24.086 24.086zM382.34 55.483H129.66a8 8 0 0 0-8 8v364.981a8 8 0 0 0 8 8h252.68a8 8 0 0 0 8-8V63.483a8 8 0 0 0-8-8zm-8 364.981H137.66V71.483h236.68zm-105.973 23.4h-24.733a22.372 22.372 0 0 0 0 44.744h24.733a22.372 22.372 0 0 0 0-44.744zm0 28.744h-24.733a6.372 6.372 0 0 1 0-12.744h24.733a6.372 6.372 0 0 1 0 12.744z" data-original="url(#a)" class=""></path></g></svg>