<svg xmlns="http://www.w3.org/2000/svg" version="1.1" xmlns:xlink="http://www.w3.org/1999/xlink" xmlns:svgjs="http://svgjs.com/svgjs" width="512" height="512" x="0" y="0" viewBox="0 0 100 100" style="enable-background:new 0 0 512 512" xml:space="preserve" class=""><g><g data-name="Business, document, mail, office, paper"><path d="M92.31 25.15a4.08 4.08 0 0 0-.28-.44L66.17 46.05l25.64 29.58A5.92 5.92 0 0 0 93 72.08V27.92a5.89 5.89 0 0 0-.69-2.77zM8 24.71a4.08 4.08 0 0 0-.28.44A5.89 5.89 0 0 0 7 27.92v44.16a5.92 5.92 0 0 0 1.19 3.55l25.64-29.58zM50 53.33a7.37 7.37 0 0 0 4.69-1.7l35.1-29a5.91 5.91 0 0 0-2.71-.63H12.92a5.91 5.91 0 0 0-2.71.67l35.1 29A7.39 7.39 0 0 0 50 53.33z" fill="#e7e5e4" data-original="#000000" opacity="1" class=""></path><path d="M56.6 54a10.34 10.34 0 0 1-13.2 0l-7.26-6-25.6 29.5a5.9 5.9 0 0 0 2.38.5h74.16a5.9 5.9 0 0 0 2.38-.5L63.86 48z" fill="#e7e5e4" data-original="#000000" opacity="1" class=""></path></g></g></svg>