<svg xmlns="http://www.w3.org/2000/svg" version="1.1" xmlns:xlink="http://www.w3.org/1999/xlink" xmlns:svgjs="http://svgjs.com/svgjs" width="512" height="512" x="0" y="0" viewBox="0 0 24 24" style="enable-background:new 0 0 512 512" xml:space="preserve"><g><linearGradient id="a" x1="12" x2="12" y1="9.6" y2="14.4" gradientUnits="userSpaceOnUse"><stop stop-opacity="1" stop-color="#2c7cff" offset="0"></stop><stop stop-opacity="1" stop-color="#1e12a3" offset="0.979"></stop></linearGradient><path fill="url(#a)" d="M5 10c-1.1 0-2 .9-2 2s.9 2 2 2 2-.9 2-2-.9-2-2-2zm14 0c-1.1 0-2 .9-2 2s.9 2 2 2 2-.9 2-2-.9-2-2-2zm-7 0c-1.1 0-2 .9-2 2s.9 2 2 2 2-.9 2-2-.9-2-2-2z" data-original="url(#a)"></path></g></svg>