<svg xmlns="http://www.w3.org/2000/svg" version="1.1" xmlns:xlink="http://www.w3.org/1999/xlink" xmlns:svgjs="http://svgjs.com/svgjs" width="512" height="512" x="0" y="0" viewBox="0 0 512 512" style="enable-background:new 0 0 512 512" xml:space="preserve" class=""><g><defs><linearGradient id="a" x1="264" x2="264" y1="499" y2="11.189" gradientUnits="userSpaceOnUse"><stop stop-opacity="1" stop-color="#f5f5f4" offset="0.322"></stop><stop stop-opacity="1" stop-color="#f5f5f4" offset="0.466"></stop><stop stop-opacity="1" stop-color="#f5f5f4" offset="0.752"></stop><stop stop-opacity="1" stop-color="#f5f5f4" offset="0.898"></stop></linearGradient><linearGradient xlink:href="#a" id="b" x1="116.5" x2="116.5" y1="499" y2="11.189"></linearGradient><linearGradient xlink:href="#a" id="c" x1="407.5" x2="407.5" y1="499" y2="11.189"></linearGradient><linearGradient xlink:href="#a" id="d" x1="235" x2="235" y1="499" y2="11.189"></linearGradient></defs><path d="M494.479 288h-11.306c-2.863-23-22.229-41-45.635-41h-61.013L366.359 63.858A26.014 26.014 0 0 0 383 39.835V26.414A6.717 6.717 0 0 0 376.6 20h-84.907c-3.314 0-5.693 3.1-5.693 6.414v13.421a25.7 25.7 0 0 0 16.289 24.024L291.769 247h-27.68l-10.341-138.271a25.715 25.715 0 0 0 16.252-24V71.307c0-3.314-2.42-6.307-5.733-6.307h-77.24A6.292 6.292 0 0 0 181 71.307v13.421a25.846 25.846 0 0 0 16.4 24L187.205 247h-5.321a55.738 55.738 0 0 0-7.884.955v-88.286a5.578 5.578 0 0 0-5.824-5.669h-63.883c-3.313 0-6.293 2.356-6.293 5.669V201H74.349c-3.314 0-6.349 2.27-6.349 5.583V288H34.479c-3.313 0-6.479 2.2-6.479 5.509v184.078A6.791 6.791 0 0 0 34.479 484h460c3.314 0 5.521-3.1 5.521-6.413V293.509a5.205 5.205 0 0 0-5.521-5.509ZM298 39.835V32h73v7.835A14.5 14.5 0 0 1 356.6 54h-44.907A13.9 13.9 0 0 1 298 39.835ZM314.051 66h40.193l10.262 181h-60.718ZM193 84.728V77h65v7.728C258 92.448 251.986 99 244.267 99h-37.24A14.274 14.274 0 0 1 193 84.728ZM209.309 111h32.676l10.071 136h-52.818Zm228.229 148c16.777 0 30.746 13 33.509 29H148.376c2.762-16 16.731-29 33.508-29ZM110 166h52v85.74a50.553 50.553 0 0 0-14 10.614v-55.771c0-3.313-2.816-5.583-6.129-5.583H110Zm-30 47h56v75H80Zm408 259H40V300h448Z" style="fill:url(#a)" fill=""></path><path d="M173 355a6 6 0 0 0-6-6H66a6 6 0 0 0-6 6v48a6 6 0 0 0 6 6h101a6 6 0 0 0 6-6Zm-101 6h89v36H72Z" style="fill:url(#b)" fill=""></path><path d="M464 355a6 6 0 0 0-6-6H357a6 6 0 0 0-6 6v48a6 6 0 0 0 6 6h101a6 6 0 0 0 6-6Zm-71 42v-36h29v36Zm59 0h-18v-36h18Zm-89-36h18v36h-18Z" style="fill:url(#c)" fill=""></path><path d="M274 355a6 6 0 0 0-6-6h-66a6 6 0 0 0-6 6v48a6 6 0 0 0 6 6h66a6 6 0 0 0 6-6Zm-66 6h54v36h-54Z" style="fill:url(#d)" fill=""></path></g></svg>