<svg xmlns="http://www.w3.org/2000/svg" version="1.1" xmlns:xlink="http://www.w3.org/1999/xlink" xmlns:svgjs="http://svgjs.com/svgjs" width="512" height="512" x="0" y="0" viewBox="0 0 460 460" style="enable-background:new 0 0 512 512" xml:space="preserve" class=""><g><linearGradient id="a" x1="-66.5" x2="-9" y1="575.375" y2="575.375" gradientTransform="matrix(8 0 0 -8 532 4833)" gradientUnits="userSpaceOnUse"><stop stop-opacity="1" stop-color="#e7e5e4" offset="0"></stop><stop stop-opacity="1" stop-color="#f5f5f4" offset="0.9961389961389961"></stop></linearGradient><path d="M331.84 191.76h-70.88V171.6c0-17.244 13.956-31.236 31.2-31.28h32a6 6 0 0 0 6-6V70a6.08 6.08 0 0 0-6-6h-54.88c-49.271.088-89.192 40.009-89.28 89.28v37.36h-51.84a6.08 6.08 0 0 0-6 6V262a6.08 6.08 0 0 0 6 6H180v122a6.08 6.08 0 0 0 6 6h73.04a6.08 6.08 0 0 0 6-6V268h50.8a5.92 5.92 0 0 0 5.76-4.56l16-64a5.919 5.919 0 0 0-1.04-5.12 6.162 6.162 0 0 0-4.72-2.56zm-20.72 64h-52.08a6 6 0 0 0-6 6V384H192V262a6.08 6.08 0 0 0-6-6h-52v-53.36h52a6 6 0 0 0 6-6v-43.36c.044-42.662 34.618-77.236 77.28-77.28H318v52.32h-25.84c-23.872.044-43.2 19.408-43.2 43.28V198a6 6 0 0 0 6 6h69.2l-13.04 51.76zM230 0C102.975 0 0 102.975 0 230s102.975 230 230 230 230-102.975 230-230C459.824 103.048 356.952.176 230 0zm0 448c-120.398 0-218-97.602-218-218S109.602 12 230 12s218 97.602 218 218c-.132 120.343-97.657 217.868-218 218z" style="fill:url(#a);" fill=""></path></g></svg>