<svg xmlns="http://www.w3.org/2000/svg" version="1.1" xmlns:xlink="http://www.w3.org/1999/xlink" xmlns:svgjs="http://svgjs.com/svgjs" width="512" height="512" x="0" y="0" viewBox="0 0 32 32" style="enable-background:new 0 0 512 512" xml:space="preserve" class=""><g><linearGradient id="a" x1="2" x2="30" y1="16" y2="16" gradientUnits="userSpaceOnUse"><stop stop-opacity="1" stop-color="#f5f5f4" offset="0.011583011583011582"></stop><stop stop-opacity="1" stop-color="#e7e5e4" offset="1"></stop></linearGradient><path fill="url(#a)" d="M16 30C8.28 30 2 23.72 2 16S8.28 2 16 2s14 6.28 14 14-6.28 14-14 14zm0-26C9.383 4 4 9.383 4 16s5.383 12 12 12 12-5.383 12-12S22.617 4 16 4zm7.178 14.912a.999.999 0 0 0 0-1.414l-6.45-6.451a.997.997 0 0 0-1.414 0l-6.491 6.491a.999.999 0 1 0 1.414 1.414l5.784-5.784 5.743 5.744a.999.999 0 0 0 1.414 0z" data-original="url(#a)" class=""></path></g></svg>