<svg xmlns="http://www.w3.org/2000/svg" version="1.1" xmlns:xlink="http://www.w3.org/1999/xlink" xmlns:svgjs="http://svgjs.com/svgjs" width="512" height="512" x="0" y="0" viewBox="0 0 152 152" style="enable-background:new 0 0 512 512" xml:space="preserve" class=""><g><linearGradient id="a"><stop stop-opacity="1" stop-color="#172554" offset="0"></stop><stop stop-opacity="1" stop-color="#172554" offset="0.15"></stop><stop stop-opacity="1" stop-color="#172554" offset="0.3"></stop><stop stop-opacity="1" stop-color="#172554" offset="0.5"></stop><stop stop-opacity="1" stop-color="#1d4ed8" offset="1"></stop></linearGradient><linearGradient xlink:href="#a" id="b" x1="21.441" x2="130.559" y1="21.441" y2="130.559" gradientUnits="userSpaceOnUse"></linearGradient><linearGradient xlink:href="#a" id="c" x1="52.416" x2="99.408" y1="52.418" y2="99.41" gradientUnits="userSpaceOnUse"></linearGradient><linearGradient xlink:href="#a" id="d" x1="105.559" x2="116.742" y1="35.242" y2="46.425" gradientUnits="userSpaceOnUse"></linearGradient><path fill="url(#b)" d="M105.2 11H46.8C26.9 11 11 26.9 11 46.8v58.5c0 19.8 15.9 35.8 35.8 35.8h58.5c19.8 0 35.8-15.9 35.8-35.8V46.8c-.1-19.9-16-35.8-35.9-35.8zm24.4 89.1c0 16.2-13.2 29.6-29.6 29.6H52c-16.2 0-29.6-13.2-29.6-29.6V52c0-16.2 13.2-29.6 29.6-29.6h48.3c16.2 0 29.6 13.2 29.6 29.6v48.1z" data-original="url(#b)"></path><path fill="url(#c)" d="m99.7 52.6-.3-.3-.3-.3c-6.2-6.2-14.5-9.6-23.1-9.6-18.4.1-33.3 15.2-33.2 33.6 0 8.9 3.6 17.4 9.8 23.7 6.2 6.3 14.6 9.8 23.4 9.8 18.5-.3 33.3-15.8 33-34.5-.2-8.3-3.4-16.4-9.3-22.4zM76 98.1c-12.2.2-22.1-9.6-22.3-21.8S63.3 54.2 75.5 54s22.1 9.6 22.3 21.8v.3c0 11.9-9.8 21.8-21.8 22z" data-original="url(#c)" class=""></path><path fill="url(#d)" d="M118.9 40.9c0 4.4-3.4 8-7.8 8-2.1 0-4.1-.8-5.5-2.3-3.1-3.1-3.1-8.3.2-11.4 1.5-1.5 3.4-2.3 5.5-2.3 1.8 0 3.6.7 5 1.8l.2.2c.3.2.5.5.7.7l.2.2c.8 1.4 1.5 3.2 1.5 5.1z" data-original="url(#d)"></path></g></svg>