<svg id="Layer_1" height="512" viewBox="0 0 512 512" width="512" xmlns="http://www.w3.org/2000/svg" data-name="Layer 1"><circle cx="256" cy="256" fill="#2196f3" r="256"/><path d="m169.983 93.5h-1.517a22.735 22.735 0 0 0 -7.654 1.586l-.672.266c-10.521 4.166-41.546 15.647-49.2 23.3-11.413 11.413-16.655 25.589-17.354 41.626-.779 17.919 4.268 36.572 10.93 53.054 16.884 41.768 48.584 82.284 80.234 113.93s72.159 63.348 113.934 80.238c15.443 6.242 32.622 11.006 49.389 11.006q1.836 0 3.669-.078c16.035-.7 30.213-5.941 41.623-17.354 7.824-7.824 19.109-38.434 23.271-49.122l.263-.676a22.573 22.573 0 0 0 -9.752-27.955l-55.58-32.089a22.716 22.716 0 0 0 -30.973 8.3c-5.5 9.521-13.823 17.246-24.881 19.5a36.47 36.47 0 0 1 -30.049-6.749 333.6 333.6 0 0 1 -35.025-30.916 333.571 333.571 0 0 1 -30.909-35.019 36.469 36.469 0 0 1 -6.751-30.051c2.26-11.055 9.988-19.385 19.508-24.88a22.733 22.733 0 0 0 8.3-30.971l-32.087-55.578a22.456 22.456 0 0 0 -18.717-11.368zm88.379 12.964a12.962 12.962 0 0 1 12.963-12.964 147.165 147.165 0 0 1 147.166 147.17 12.962 12.962 0 1 1 -25.923 0 121.24 121.24 0 0 0 -121.243-121.246 12.962 12.962 0 0 1 -12.963-12.962zm0 52.516a12.962 12.962 0 0 1 12.961-12.964 94.649 94.649 0 0 1 94.654 94.654 12.962 12.962 0 0 1 -25.924 0 68.728 68.728 0 0 0 -68.728-68.728 12.962 12.962 0 0 1 -12.963-12.962zm0 52.514a12.962 12.962 0 0 1 12.963-12.962 42.135 42.135 0 0 1 42.136 42.138 12.962 12.962 0 1 1 -25.924 0 16.214 16.214 0 0 0 -16.212-16.215 12.962 12.962 0 0 1 -12.963-12.963z" fill="#fff" fill-rule="evenodd"/></svg>