<svg version="1.1" id="Layer_1" xmlns="http://www.w3.org/2000/svg" xmlns:xlink="http://www.w3.org/1999/xlink" x="0px" y="0px"
	 width="100%" viewBox="0 0 336 192" enable-background="new 0 0 336 192" xml:space="preserve">
  
  
  <linearGradient id="logoGradient" gradientTransform="rotate(90)">
    <stop offset="0%" stopColor="#78716C" />
    <stop offset="100%" stopColor="#1E40AF" />
  </linearGradient>


<path fill="url(#logoGradient)" opacity="1.000000" stroke="none" 
	d="
M163.341705,190.046387 
	C129.800476,182.342377 107.526436,158.675354 103.180061,124.999352 
	C100.613647,105.114555 107.658150,87.641922 120.059502,72.222359 
	C129.796600,60.115471 142.107559,52.645699 157.855621,51.413284 
	C159.614822,51.275612 161.354141,50.883953 163.890793,50.486641 
	C158.012589,46.840694 152.201508,45.777275 146.267288,45.328491 
	C115.255882,42.983204 95.989052,60.074306 85.425354,85.284073 
	C70.675941,120.482910 79.003708,158.413666 106.546387,184.755219 
	C108.202477,186.339096 110.195305,187.660034 111.312675,190.312866 
	C109.069458,190.371460 107.897591,188.954803 106.646851,187.864502 
	C84.478294,168.539566 72.107887,144.143036 72.079529,114.777367 
	C72.050575,84.771111 82.139053,58.709400 108.493690,41.583210 
	C142.408035,19.544455 186.528397,30.685337 203.732971,66.194992 
	C213.413116,86.174500 216.196533,107.243149 205.167099,128.161469 
	C202.039673,134.092911 197.399170,138.872620 192.615189,144.195267 
	C210.089706,138.088638 231.805145,110.428574 228.461517,76.949234 
	C226.011703,52.419472 213.012558,33.699280 192.563034,20.220772 
	C172.053223,6.702528 149.835495,5.194643 126.481918,11.961380 
	C128.631424,9.274247 131.456146,8.698004 134.110504,8.151942 
	C169.873505,0.794656 200.587585,9.703571 223.226852,38.907093 
	C251.914413,75.912560 242.497528,133.015732 200.536972,157.723190 
	C178.505066,170.696182 151.217819,167.503876 132.061295,149.841034 
	C130.112091,148.043808 128.215576,146.189407 125.404945,143.514984 
	C126.265137,147.201050 127.407555,149.559036 128.775116,151.852554 
	C144.330582,177.940140 175.680130,187.047363 204.213470,173.677750 
	C232.582016,160.385345 247.849380,137.733215 251.834442,106.966560 
	C252.911652,98.649940 253.063110,90.398232 251.905228,82.096886 
	C251.660339,80.341194 251.291718,78.468613 252.535095,76.401909 
	C255.468338,80.713593 254.712448,85.622757 254.973129,89.955353 
	C256.487244,115.119125 251.649521,138.831665 235.857391,159.161301 
	C221.405151,177.766052 202.421860,188.849869 178.679352,191.152924 
	C173.642654,191.641479 168.717361,190.724594 163.341705,190.046387 
M173.414932,135.994705 
	C187.796509,128.708984 195.288498,113.720352 192.498428,97.815971 
	C189.839020,82.656548 176.812943,70.701897 162.520370,70.303711 
	C149.444977,69.939430 138.032669,77.249680 132.495361,89.536469 
	C126.560059,102.706375 128.968353,118.188995 138.569397,128.585617 
	C147.508209,138.265137 159.645950,141.017700 173.414932,135.994705 
z"/>
<path fill="#1E40AF" opacity="1.000000" stroke="none" 
	d="
M144.747375,85.743210 
	C154.561493,77.817924 164.429718,76.859138 173.556412,82.725014 
	C182.797165,88.664192 187.203568,99.761726 184.576492,110.479057 
	C181.809906,121.765457 173.403625,129.070068 162.117462,129.994644 
	C145.506973,131.355392 132.404465,112.312622 138.550522,95.708717 
	C139.888596,92.093910 141.690308,88.732849 144.747375,85.743210 
z"/>
</svg>