<svg xmlns="http://www.w3.org/2000/svg" version="1.1" xmlns:xlink="http://www.w3.org/1999/xlink" xmlns:svgjs="http://svgjs.com/svgjs" width="512" height="512" x="0" y="0" viewBox="0 0 36 36" style="enable-background:new 0 0 512 512" xml:space="preserve" class=""><g><linearGradient id="a" x1="-.727" x2="24.728" y1="24.728" y2="-.728" gradientUnits="userSpaceOnUse"><stop stop-opacity="1" stop-color="#0099ff" offset="0"></stop><stop stop-opacity="1" stop-color="#3b82f6" offset="0"></stop><stop stop-opacity="1" stop-color="#172554" offset="1"></stop></linearGradient><circle cx="12" cy="12" r="18" fill="url(#a)" data-original="url(#a)" class=""></circle><path fill="#ffffff" d="M17 0H7C5.9 0 5 .9 5 2v20c0 1.1.9 2 2 2h10c1.1 0 2-.9 2-2V2c0-1.1-.9-2-2-2zm-5 23a1 1 0 1 1-.002-1.998A1 1 0 0 1 12 23zm6-3H6V2h12z" data-original="#ffffff" class=""></path></g></svg>