<svg xmlns="http://www.w3.org/2000/svg" version="1.1" xmlns:xlink="http://www.w3.org/1999/xlink" xmlns:svgjs="http://svgjs.com/svgjs" width="512" height="512" x="0" y="0" viewBox="0 0 64 64" style="enable-background:new 0 0 512 512" xml:space="preserve" class=""><g><linearGradient id="a" x1="10.907" x2="53.093" y1="32.011" y2="32.011" gradientUnits="userSpaceOnUse"><stop stop-opacity="1" stop-color="#f5f5f4" offset="0"></stop><stop stop-opacity="1" stop-color="#e7e5e4" offset="1"></stop></linearGradient><path fill="url(#a)" d="M46.552 38.49h-7.048l-1.285-1.053a10.752 10.752 0 0 0 4.416-7.239 4.063 4.063 0 0 0 4.167-4.053 4.105 4.105 0 0 0-3.693-4.493 4.605 4.605 0 0 0 .347-1.336.972.972 0 0 0 .412-.607c4.082-1.68 2.875-6.705 1.189-9-2.494-3.438-11.273-10.807-21.81-3.707-6.258 3.988-8.418 9.336-3.135 12.605a.975.975 0 0 0 .432.71 4.604 4.604 0 0 0 .347 1.335c-5.131.509-4.843 8.48.361 8.546a11.552 11.552 0 0 0 4.522 7.248l-1.277 1.043h-7.05a6.548 6.548 0 0 0-6.54 6.54v10.845A4.125 4.125 0 0 0 15.022 60h33.956a4.125 4.125 0 0 0 4.115-4.126V45.03a6.548 6.548 0 0 0-6.541-6.54zM32 52.096 34.54 58h-5.08zm0-4.078-1.54-2.075 1.54-1.14 1.54 1.14zm-1.39-4.675-3.786 2.803-.9-6.241 1.385-1.132zm2.78 0 3.307-4.567 1.38 1.128-.901 6.242zM32 41.853l-1.874-2.595a10.142 10.142 0 0 0 3.754 0zm-1.893-28.92a2.128 2.128 0 0 0 .114-2.208A2.798 2.798 0 0 0 32 10.678a2.786 2.786 0 0 0 1.78.048c-.961 1.502 1.06 3.026.615 4.132-.203.473-1.061.68-1.344.748A5.143 5.143 0 0 0 32 15.97a5.182 5.182 0 0 0-1.052-.363c-1.49-.3-1.812-1.01-.841-2.672zm.133 4.557a4.063 4.063 0 0 1 .977.326 1 1 0 0 0 1.566 0 4.04 4.04 0 0 1 .976-.326h7.8c.491-.005.325.709.351 1.007H22.09c.032-.301-.149-1.008.35-1.007zM23.217 21.6c-.19-.384-.55-.645-.627-1.099h18.82a2.716 2.716 0 0 1-2.543 1.923H25.133a2.635 2.635 0 0 1-1.916-.824zm21.585 4.07a2.147 2.147 0 0 1-2.043 2.53v-4.584a2.056 2.056 0 0 1 2.043 2.053zm-25.684-10.51c-.15-1.838 1.664-4.085 5.245-6.497C35.48 1.17 43.36 11.776 43.437 11.884c.576.793 1.594 2.945 1.07 4.53a2.183 2.183 0 0 1-.643.969 2.353 2.353 0 0 0-2.304-1.893h-5.274a4.401 4.401 0 0 0-.75-3.697c-.044-.059-.007-.133.12-.24a1.226 1.226 0 0 0 .149-1.721c-.539-.638-1.163-1.64-2.148-1.181-.498.222-.872.217-.933.153a1.03 1.03 0 0 0-1.448 0c-.061.066-.43.072-.934-.154-.982-.455-1.611.542-2.147 1.183a1.222 1.222 0 0 0 .149 1.72c.175.148.147.194.12.24a4.404 4.404 0 0 0-.75 3.697H22.44a2.345 2.345 0 0 0-2.24 1.674 3.177 3.177 0 0 1-1.082-2.005zm2.123 13.04c-2.75-.022-2.75-4.563 0-4.584zm2.004.479v-4.665a4.602 4.602 0 0 0 1.888.41h13.734a4.6 4.6 0 0 0 1.888-.41v4.665c-.436 11.605-17.1 11.59-17.51 0zM12.907 55.874V45.03a4.546 4.546 0 0 1 4.54-4.54h6.54l1.097 7.6a1.007 1.007 0 0 0 1.585.661l2.183-1.616 1.967 2.647L27.282 58h-6.005v-6.743a1 1 0 0 0-2 0V58h-4.255a2.123 2.123 0 0 1-2.115-2.126zm38.186 0A2.123 2.123 0 0 1 48.978 58h-4.255v-6.743a1 1 0 0 0-2 0V58h-6.005l-3.537-8.218 1.967-2.648 2.184 1.617a1.007 1.007 0 0 0 1.585-.66l1.096-7.602h6.539a4.546 4.546 0 0 1 4.54 4.54zm-27.466-2.499h3.118a1 1 0 0 1 0 2h-3.118a1 1 0 0 1 0-2zm17.324 2h-3.119a1 1 0 0 1 0-2h3.12a1 1 0 0 1 0 2z" data-original="url(#a)" class=""></path></g></svg>