<svg xmlns="http://www.w3.org/2000/svg" version="1.1" xmlns:xlink="http://www.w3.org/1999/xlink" xmlns:svgjs="http://svgjs.com/svgjs" width="512" height="512" x="0" y="0" viewBox="0 0 64 64" style="enable-background:new 0 0 512 512" xml:space="preserve" class=""><g><linearGradient id="a" x1="2.872" x2="56.931" y1="7.163" y2="60.866" gradientUnits="userSpaceOnUse"><stop stop-opacity="1" stop-color="#b6b6b6" offset="0"></stop><stop stop-opacity="1" stop-color="#4c4c4c" offset="1"></stop></linearGradient><linearGradient xlink:href="#a" id="b" x1="14.921" x2="68.98" y1="-4.967" y2="48.736"></linearGradient><path fill="url(#a)" d="M41 43h-4v-2a7.008 7.008 0 0 0 7-7h2a3.989 3.989 0 0 0 1.286-7.769v-7.1l1.527-5.7a5.4 5.4 0 0 0-.56-4.148 4.555 4.555 0 0 0-2.86-2.149l-13.164-3.1a.985.985 0 0 0-.458 0L18.607 7.13a4.555 4.555 0 0 0-2.86 2.149 5.4 5.4 0 0 0-.56 4.147l1.527 5.705v7.1A3.989 3.989 0 0 0 18 34h2a7.008 7.008 0 0 0 7 7v2h-4a11.013 11.013 0 0 0-11 11v5a1 1 0 0 0 1 1h38a1 1 0 0 0 1-1v-5a11.013 11.013 0 0 0-11-11zM20 26h-1.286v-1.47c.427.162.856.313 1.286.46zm-1.286-3.61V20h26.572v2.39a35.121 35.121 0 0 1-26.572 0zm26.572 2.14V26H44v-1.01c.43-.147.859-.298 1.286-.46zM48 30a2 2 0 0 1-2 2h-2v-4h2a1.934 1.934 0 0 1 .254.026c.011 0 .021.006.032.006h.011A2 2 0 0 1 48 30zM17.464 10.305a2.575 2.575 0 0 1 1.6-1.228L32 6.027l12.934 3.05a2.575 2.575 0 0 1 1.6 1.228 3.39 3.39 0 0 1 .346 2.6L45.519 18H18.481l-1.363-5.092a3.388 3.388 0 0 1 .346-2.603zM18 32a2 2 0 0 1 0-4h2v4zm4 2v-8.39A37.049 37.049 0 0 0 32 27a37.049 37.049 0 0 0 10-1.39V34a5.006 5.006 0 0 1-5 5H27a5.006 5.006 0 0 1-5-5zm13 7v2a3 3 0 0 1-6 0v-2zm-7.576 4a4.99 4.99 0 0 0 9.152 0H40v1a4 4 0 0 1-4 4 1 1 0 0 0-1 1v7h-6v-7a1 1 0 0 0-1-1 4 4 0 0 1-4-4v-1zM14 54a9.011 9.011 0 0 1 8-8.941V46a6.01 6.01 0 0 0 5 5.917V58h-5v-4a1 1 0 0 0-2 0v4h-6zm36 4h-6v-4a1 1 0 0 0-2 0v4h-5v-6.083A6.01 6.01 0 0 0 42 46v-.941A9.011 9.011 0 0 1 50 54z" data-original="url(#a)" class=""></path><path fill="url(#b)" d="M32 16a4 4 0 1 0-4-4 4 4 0 0 0 4 4zm0-6a2 2 0 1 1-2 2 2 2 0 0 1 2-2z" data-original="url(#b)"></path></g></svg>