<svg xmlns="http://www.w3.org/2000/svg" version="1.1" xmlns:xlink="http://www.w3.org/1999/xlink" xmlns:svgjs="http://svgjs.com/svgjs" width="512" height="512" x="0" y="0" viewBox="0 0 512 512" style="enable-background:new 0 0 512 512" xml:space="preserve" class=""><g><linearGradient id="a" x1="111.494" x2="111.494" y1="452.915" y2="173.333" gradientUnits="userSpaceOnUse"><stop stop-opacity="1" stop-color="#e7e5e4" offset="0.322"></stop><stop stop-opacity="1" stop-color="#e7e5e4" offset="0.4749034749034749"></stop><stop stop-opacity="1" stop-color="#f5f5f4" offset="0.752"></stop><stop stop-opacity="1" stop-color="#f5f5f4" offset="0.898"></stop></linearGradient><linearGradient xlink:href="#a" id="b" x1="256" x2="256" y1="452.915" y2="173.333"></linearGradient><path fill="url(#a)" d="M111.494 379.871a6 6 0 0 0-6 6v7.512a6 6 0 0 0 12 0v-7.512a6 6 0 0 0-6-6zM111.494 408.354a6 6 0 0 0-6 6v54.513a6 6 0 0 0 12 0v-54.513a6 6 0 0 0-6-6z" data-original="url(#a)"></path><g fill="url(#b)"><path d="m237.858 71.4-2.227 12.987a6 6 0 0 0 8.706 6.325L256 84.578l11.663 6.131a6 6 0 0 0 8.706-6.325L274.142 71.4l9.435-9.2a6 6 0 0 0-3.326-10.234l-13.039-1.9-5.831-11.816a6 6 0 0 0-10.762 0l-5.831 11.816-13.039 1.9a6 6 0 0 0-3.326 10.234zm11.777-9.9a6 6 0 0 0 4.518-3.283L256 54.468l1.847 3.742a6 6 0 0 0 4.518 3.283l4.129.6-2.988 2.913a6 6 0 0 0-1.726 5.31l.706 4.114-3.694-1.942a6 6 0 0 0-5.584 0l-3.694 1.942.706-4.114a6 6 0 0 0-1.726-5.31l-2.988-2.913z" fill=""></path><path d="m405.243 335.608 2.306-6.4a6 6 0 0 0-3.611-7.678l-67.26-24.23a6 6 0 0 0-7.678 3.612l-.731 2.031-23.7-12.7V284a71.291 71.291 0 0 0 23.023-42.049l4.707-30.031a19.03 19.03 0 0 0 9.539-34.36 129.1 129.1 0 0 0 6.3-23.753 5.938 5.938 0 0 0 1.019-5.467l-4.314-14.007 33.347-22.818a6 6 0 0 0 1.669-8.18l-37.014-58a6 6 0 0 0-3.155-2.463L257.511 15.4a6 6 0 0 0-3.822.006L172.3 42.875a6.012 6.012 0 0 0-3.142 2.461l-37.014 58.094a6 6 0 0 0 1.673 8.176l33.117 22.648-4.115 14.183a6 6 0 0 0 2.035 6.372c.934 5.736 2.079 12.023 4.379 17.8l2.467 6.2a19.029 19.029 0 0 0 11.084 33.108l4.708 30.031a71.229 71.229 0 0 0 20.1 39.3v11.185l-23.464 11.614-1.128-3.135a6 6 0 0 0-7.678-3.612l-67.26 24.229a6 6 0 0 0-3.611 7.678l2.306 6.4a88.42 88.42 0 0 0-32.588 68.38v86.918a6 6 0 0 0 6 6h351.662a6 6 0 0 0 6-6v-86.917a88.42 88.42 0 0 0-32.588-68.38zm-19.5-7.877 8.479 3.054-4.054 11.256-8.48-3.055zm-26.734-9.63 15.445 5.563-4.054 11.255-15.445-5.564zm-20.757-7.477 9.468 3.41-4.055 11.255-9.467-3.411zm-62.72 48.7-8.732 19.15h-20.154L236.6 359.029l19.372-11.392zm-52.509-56.033a10.136 10.136 0 0 1-3.431-7.6v-4.834a69.957 69.957 0 0 0 4.582 2.681 70.8 70.8 0 0 0 66.725 0q.84-.448 1.663-.919v3.054a10.126 10.126 0 0 1-3.447 7.612l-33.111 29.073zm42.909 36.319 31.1-27.307a22.076 22.076 0 0 0 3.617-4.079l12.786 59.766zM174.3 108.868l-3.846 13.255-25.068-17.144 32.756-51.41 77.476-26.146 78.249 26.155 32.745 51.322-25.474 17.431-4.175-13.553a6 6 0 0 0-4.363-4.078l-28.4-6.662a213.671 213.671 0 0 0-97.108 0l-28.4 6.662a6 6 0 0 0-4.392 4.168zm153.783 11.837-19.783-4.641a230.176 230.176 0 0 0-104.6 0l-20.382 4.782 1.528-5.266 24.984-5.862a201.653 201.653 0 0 1 91.628 0l25.049 5.877zm-148.6 13.366 26.96-6.324a218.1 218.1 0 0 1 99.118 0l26.616 6.244 3.7 12.015-39.524 11.179a148.826 148.826 0 0 1-81.374-.087l-38.955-11.107zm155.447 24.674a120.83 120.83 0 0 1-1.776 6.771v-6.269zm-153 1.408v11.9l-1.544-3.881a54.117 54.117 0 0 1-2.592-9.2zm17.42 79.942-5.493-35.03a6 6 0 0 0-5.927-5.071h-3.481a7.052 7.052 0 0 1 0-14.1h3.481a6 6 0 0 0 6-6v-16.319l17.759 5.063a160.8 160.8 0 0 0 87.93.094l21.535-6.091v17.249a6 6 0 0 0 6 6h3.481a7.052 7.052 0 1 1 0 14.1h-3.481a6 6 0 0 0-5.927 5.071l-5.492 35.029a58.9 58.9 0 0 1-116.385 0zm12.269 68.3a22.066 22.066 0 0 0 3.477 3.895l30.941 27.27-48.264 28.382zm-37.873 2.227 4.054 11.254-8.907 3.209-4.054-11.255zm-20.2 7.275 4.054 11.255-15.446 5.564-4.054-11.253zm-26.735 9.63 4.054 11.255-9.039 3.257-4.054-11.256zm26.421 157.377v-55.652a6 6 0 0 0-12 0v55.654H86.169v-80.918a76.386 76.386 0 0 1 24.939-56.3l1.464 4.064a6 6 0 0 0 7.678 3.612l67.26-24.229a6 6 0 0 0 3.611-7.679l-2.911-8.082 10.656-5.124-15.949 68.6a6 6 0 0 0 8.885 6.53l34.442-20.254 10.5 20.322-16.991 99.463zm272.6 0h-55.066V429.5a6.168 6.168 0 0 0-5.815-6.249 6 6 0 0 0-6.185 6v55.654h-66.223l-6.9-43.84a6 6 0 0 0-11.854 1.867l6.611 41.973h-48.478l16.131-94.432h17.469l1.963 12.46a6 6 0 0 0 5.927 5.067 6 6 0 0 0 5.927-6.933l-2.48-15.744 9.041-19.809 33.212 19.84a6 6 0 0 0 8.945-6.406L313 308.558a261.968 261.968 0 0 0 11.179 5.744l-3.3 9.154a6 6 0 0 0 3.611 7.679l67.26 24.229a6.018 6.018 0 0 0 6.9-2.12 5.76 5.76 0 0 0 .777-1.492l1.464-4.064a76.386 76.386 0 0 1 24.939 56.3z" fill=""></path></g></g></svg>