<svg xmlns="http://www.w3.org/2000/svg" version="1.1" xmlns:xlink="http://www.w3.org/1999/xlink" xmlns:svgjs="http://svgjs.com/svgjs" width="512" height="512" x="0" y="0" viewBox="0 0 64 64" style="enable-background:new 0 0 512 512" xml:space="preserve" class=""><g><linearGradient id="a" x1="32" x2="32" y1="63" y2="1" gradientUnits="userSpaceOnUse"><stop stop-opacity="1" stop-color="#e7e5e4" offset="0"></stop><stop stop-opacity="1" stop-color="#f5f5f4" offset="1"></stop></linearGradient><path fill="url(#a)" d="M33 41.685 47.088 34 33 26.315zm2-12L42.912 34 35 38.315zM61 25h-2c-1.103 0-2 .897-2 2v.279l-4 1.333V27c0-2.206-1.794-4-4-4h-4V6c0-2.757-2.243-5-5-5H6C3.243 1 1 3.243 1 6v52c0 2.757 2.243 5 5 5h34c2.757 0 5-2.243 5-5V45h5c1.654 0 3-1.346 3-3v-2.613l4 1.333V41c0 1.103.897 2 2 2h2c1.103 0 2-.897 2-2V27c0-1.103-.897-2-2-2zM43 58c0 1.654-1.346 3-3 3H6c-1.654 0-3-1.346-3-3V6c0-1.654 1.346-3 3-3h34c1.654 0 3 1.346 3 3v17h-2V7c0-1.103-.897-2-2-2H7c-1.103 0-2 .897-2 2v42c0 1.103.897 2 2 2h32c1.103 0 2-.897 2-2v-4h2zM25 34.579c-.472.133-.952.234-1.439.303.516-.549.993-1.105 1.439-1.668zM19.273 17a21.286 21.286 0 0 1 2.229-3.039c.644.732 1.46 1.767 2.227 3.039zm5.495 2c.538 1.215.961 2.559 1.137 4h-8.807c.177-1.438.595-2.785 1.134-4zm-1.363-5.9c2.834.364 5.337 1.8 7.073 3.9h-4.446a22.265 22.265 0 0 0-2.627-3.9zM16.962 17h-3.441a11.012 11.012 0 0 1 5.891-3.68 22.256 22.256 0 0 0-2.45 3.68zm-4.748 2h3.846a15.636 15.636 0 0 0-.982 4h-4.027c.129-1.43.537-2.779 1.163-4zm2.82 6c.056 1.362.308 2.697.769 4h-3.589a10.92 10.92 0 0 1-1.164-4zm1.643 6c.659 1.247 1.527 2.458 2.572 3.638A11.016 11.016 0 0 1 13.522 31zm4.823 3.138A18.383 18.383 0 0 1 18.998 31h5.181c-.749 1.067-1.653 2.114-2.679 3.138zM25 27v2h-7.047a11.735 11.735 0 0 1-.918-4h8.522A3.95 3.95 0 0 0 25 27zm2.912-4a15.762 15.762 0 0 0-.966-4h4.841a10.92 10.92 0 0 1 1.164 4H29zm7.037 0C34.435 16.299 28.83 11 22 11c-7.168 0-13 5.832-13 13s5.832 13 13 13c1.019 0 2.022-.126 3-.357V42c0 1.654 1.346 3 3 3h11v4H7V7h32v16zM51 42a1 1 0 0 1-1 1H28a1 1 0 0 1-1-1V27c0-1.103.897-2 2-2h20c1.103 0 2 .897 2 2zm2-4.72v-6.559l4-1.333v9.225zM61 41h-2V27l2-.001zM29 53H17c-1.103 0-2 .897-2 2v2c0 1.103.897 2 2 2h12c1.103 0 2-.897 2-2v-2c0-1.103-.897-2-2-2zm-12 4v-2h12l.002 2zm18-2h2v2h-2zM9 55h2v2H9zm20-28h2v2h-2z" data-original="url(#a)" class=""></path></g></svg>