<svg xmlns="http://www.w3.org/2000/svg" version="1.1" xmlns:xlink="http://www.w3.org/1999/xlink" xmlns:svgjs="http://svgjs.com/svgjs" width="512" height="512" x="0" y="0" viewBox="0 0 512 512" style="enable-background:new 0 0 512 512" xml:space="preserve" class=""><g><linearGradient id="a" x1="256" x2="256" y1="0" y2="512" gradientUnits="userSpaceOnUse"><stop stop-opacity="1" stop-color="#f5f5f4" offset="0"></stop><stop stop-opacity="1" stop-color="#e7e5e4" offset="1"></stop></linearGradient><path fill="url(#a)" fill-rule="evenodd" d="M256 512C114.841 512-.001 397.159-.001 256S114.841 0 256 0s256.001 114.841 256.001 256S397.159 512 256 512zm71.06-203.099c4.366-5.866 3.151-14.162-2.714-18.529l-55.104-41.022v-89.267c0-7.313-5.929-13.241-13.242-13.241-7.314 0-13.241 5.929-13.241 13.241V256c0 4.184 1.978 8.123 5.334 10.622l60.438 44.993a13.183 13.183 0 0 0 7.896 2.621c4.042 0 8.035-1.844 10.633-5.335zm-71.06 91.1c-79.402 0-144.001-64.598-144.001-144.001 0-79.402 64.598-144.001 144.001-144.001 79.402 0 144.001 64.598 144.001 144.001 0 79.402-64.599 144.001-144.001 144.001zM426.484 256c0 94.004-76.479 170.484-170.484 170.484S85.516 350.004 85.516 256 161.996 85.516 256 85.516 426.484 161.996 426.484 256z" clip-rule="evenodd" data-original="url(#a)" class=""></path></g></svg>