<svg id="Layer_1" enable-background="new 0 0 512 512" height="512" viewBox="0 0 512 512" width="512" xmlns="http://www.w3.org/2000/svg"><path clip-rule="evenodd" d="m-.001 256c0 141.156 114.844 256.001 256 256.001s256.002-114.845 256.002-256.001-114.845-256.001-256.001-256.001-256.001 114.845-256.001 256.001zm325.016 94.89-81.955-81.96c-3.397-3.429-5.338-8.077-5.338-12.929v-165.609c0-10.099 8.196-18.284 18.278-18.284 10.083 0 18.278 8.185 18.278 18.284v158.038l76.617 76.601c7.117 7.145 7.117 18.72 0 25.859-3.559 3.58-8.249 5.365-12.94 5.365-4.691-.001-9.328-1.785-12.94-5.365z" fill-rule="evenodd"/></svg>