<svg xmlns="http://www.w3.org/2000/svg" version="1.1" xmlns:xlink="http://www.w3.org/1999/xlink" xmlns:svgjs="http://svgjs.com/svgjs" width="512" height="512" x="0" y="0" viewBox="0 0 512 512" style="enable-background:new 0 0 512 512" xml:space="preserve" class=""><g><linearGradient id="a" x1="256" x2="256" y1="512" gradientUnits="userSpaceOnUse"><stop stop-opacity="1" stop-color="#f5f5f4" offset="0"></stop><stop stop-opacity="1" stop-color="#f5f5f4" offset="1"></stop></linearGradient><path fill="url(#a)" fill-rule="evenodd" d="M256 0c141.385 0 256 114.615 256 256S397.385 512 256 512 0 397.385 0 256 114.615 0 256 0zm71.648 333.005-2.7-2.475-3.406 1.349q-7.2 2.85-14.537 5.336l-.247.083-.238.105c-15.731 6.9-38.074-6.119-50.676-14.8a262.17 262.17 0 0 1-35.962-30.5 261.988 261.988 0 0 1-30.5-35.965c-8.678-12.6-21.7-34.944-14.794-50.675l.1-.236.083-.245q2.448-7.262 5.279-14.385l1.343-3.39-2.45-2.7a542.647 542.647 0 0 0-60.323-57.03l-4.91-3.977-3.59 5.2c-20.368 29.5-22.069 62.685-4.813 94.225 43.656 79.791 103.963 140.09 183.75 183.75 13.5 7.388 28.188 11.826 43.648 11.826 18.328 0 35.478-6.238 50.465-16.575l5.195-3.582-3.962-4.911a552.53 552.53 0 0 0-56.756-60.427zm-127.61-183.333a5.886 5.886 0 0 0 .549-1.413l.814-3.286L147.747 93.5l-3.9 2.575a130.537 130.537 0 0 0-11.815 8.8l-5.438 4.545 5.491 4.481a563.653 563.653 0 0 1 52.209 48.412l5.6 5.893 3.811-7.182q2.981-5.614 6.191-11.1c.031-.05.061-.1.091-.153l.035-.06.017-.034zM361.875 312.2q-5.351 3.139-10.836 6.041l-7.145 3.8 5.844 5.6A571.8 571.8 0 0 1 398 379.984l4.472 5.5 4.556-5.434a132.583 132.583 0 0 0 8.881-11.894l2.589-3.9-52.717-54.956z" data-original="url(#a)" class=""></path></g></svg>