<svg xmlns="http://www.w3.org/2000/svg" version="1.1" xmlns:xlink="http://www.w3.org/1999/xlink" xmlns:svgjs="http://svgjs.com/svgjs" width="512" height="512" x="0" y="0" viewBox="0 0 3873 3873" style="enable-background:new 0 0 512 512" xml:space="preserve" class=""><g><linearGradient id="a" x1="373.265" x2="3499.718" y1="538.848" y2="3665.301" gradientUnits="userSpaceOnUse"><stop stop-opacity="1" stop-color="#e7e5e4" offset="0"></stop><stop stop-opacity="1" stop-color="#e7e5e4" offset="1"></stop></linearGradient><path fill="url(#a)" d="M290.5 3442.4h3292v140.1h-3292zm1681-595.3h980.6v-665.4h-980.6zm-420.2 35h-70c-38.7 0-70-31.4-70-70s31.4-70 70-70h70v-420.3H920.9v980.6h630.4zm-630.4-700.5h630.4v-140.1H920.9zm2045.2-645.5c-74.2 110.5-200.4 183.3-343.2 183.3s-269-72.8-343.2-183.3c-74.2 110.5-200.4 183.3-343.2 183.3s-269-72.8-343.2-183.3c-74.2 110.5-200.4 183.3-343.2 183.3s-269-72.8-343.2-183.3c-60.5 90.1-155.6 155.1-266.2 176.1v1590.2h140.1V1971.5c0-38.7 31.4-70 70-70h770.5c38.7 0 70 31.4 70 70v1330.8h1541V1712.1c-110.5-21-205.6-86-266.2-176zm56.1 1451H1901.5c-38.7 0-70-31.4-70-70v-805.5c0-38.7 31.4-70 70-70h1120.7c38.7 0 70 31.4 70 70v805.5c0 38.7-31.4 70-70 70zm280.1-1407.9c2.2.1 4.4.1 6.7.1 126.7 0 233.4-86.3 264.4-203.1h-528.1c30.4 114.5 133.7 199.9 257 203zm-679.4.1c126.4 0 233-86.3 264.1-203.1h-528.1c31 116.8 137.7 203.1 264 203.1zm-686.4 0c126.4 0 233-86.3 264.1-203.1h-528.1c31 116.8 137.6 203.1 264 203.1zm-686.4 0c126.4 0 233-86.4 264.1-203.1H986c31 116.7 137.6 203.1 264.1 203.1zm-686.5 0h2.9c1.3-.1 2.7-.1 4.1-.1h1.2c122.8-3.6 225.5-88.7 255.9-203H299.6c31 116.8 137.7 203.1 264 203.1zm58-1288.8-33.9 105.1h2697.5l-33.9-105.1zm-79 245.1-226 700.4h3239.8l-226-700.4z" data-original="url(#a)" class=""></path></g></svg>